<svg width="347" height="75" viewBox="0 0 347 75" fill="none" xmlns="http://www.w3.org/2000/svg">
<g filter="url(#filter0_d_1_539)">
<path d="M26.512 16.012H106.498L92.5538 41.1417L85.5257 53.1977H18.2568C4.33448 51.5693 3.30815 43.96 4.53528 40.3588L14.0176 23.2142C16.2488 18.6424 22.8306 16.012 26.512 16.012Z" fill="#216900"/>
</g>
<rect x="141.153" y="15.012" width="205" height="40" rx="20" fill="#216900"/>
<g filter="url(#filter1_d_1_539)">
<path d="M156.364 16.012H113.638L92.7769 53.3542H146.882C154.289 53.3542 158.596 49.5443 159.823 47.6394L169.863 29.3205C172.005 20.0515 161.756 16.5861 156.364 16.012Z" fill="white"/>
</g>
<g filter="url(#filter2_d_1_539)">
<mask id="path-4-inside-1_1_539" fill="white">
<ellipse cx="100.65" cy="34.7222" rx="11.7135" ry="8.22"/>
</mask>
<ellipse cx="100.65" cy="34.7222" rx="11.7135" ry="8.22" fill="#216900"/>
<path d="M101.364 34.7222C101.364 33.6697 101.682 32.8071 102.022 32.2435C102.182 31.9773 102.335 31.797 102.439 31.6891C102.542 31.5814 102.608 31.5345 102.614 31.5305C102.616 31.5291 102.451 31.6406 102.079 31.7509C101.717 31.8584 101.232 31.9422 100.65 31.9422V53.9422C105.871 53.9422 111.067 52.4748 115.251 49.5387C119.402 46.6257 123.364 41.5542 123.364 34.7222H101.364ZM100.65 31.9422C100.068 31.9422 99.5828 31.8584 99.2206 31.7509C98.849 31.6406 98.684 31.5291 98.686 31.5305C98.6917 31.5345 98.7579 31.5814 98.8615 31.6891C98.9654 31.797 99.1177 31.9773 99.2781 32.2435C99.6178 32.8071 99.9365 33.6697 99.9365 34.7222H77.9365C77.9365 41.5542 81.8976 46.6257 86.0486 49.5387C90.2326 52.4748 95.4294 53.9422 100.65 53.9422V31.9422ZM99.9365 34.7222C99.9365 35.7747 99.6178 36.6373 99.2781 37.2009C99.1177 37.4671 98.9654 37.6474 98.8615 37.7553C98.7579 37.863 98.6917 37.9099 98.686 37.9139C98.684 37.9153 98.849 37.8038 99.2206 37.6934C99.5828 37.5859 100.068 37.5022 100.65 37.5022V15.5022C95.4294 15.5022 90.2326 16.9695 86.0486 19.9057C81.8976 22.8187 77.9365 27.8902 77.9365 34.7222H99.9365ZM100.65 37.5022C101.232 37.5022 101.717 37.5859 102.079 37.6934C102.451 37.8038 102.616 37.9153 102.614 37.9139C102.608 37.9099 102.542 37.863 102.439 37.7553C102.335 37.6474 102.182 37.4671 102.022 37.2009C101.682 36.6373 101.364 35.7747 101.364 34.7222H123.364C123.364 27.8902 119.402 22.8187 115.251 19.9057C111.067 16.9695 105.871 15.5022 100.65 15.5022V37.5022Z" fill="#216900" mask="url(#path-4-inside-1_1_539)"/>
</g>
<g filter="url(#filter3_d_1_539)">
<path d="M100.761 35.1594L120.086 20.3695" stroke="black" stroke-width="2" stroke-linecap="round"/>
</g>
<g filter="url(#filter4_d_1_539)">
<path d="M100.68 35.0934L88.4801 24.7433" stroke="white" stroke-width="2" stroke-linecap="round"/>
</g>
<g filter="url(#filter5_d_1_539)">
<ellipse cx="100.65" cy="34.7222" rx="3.23516" ry="2.27029" fill="white"/>
</g>
<path d="M49.3048 42.952C49.7882 42.952 50.17 43.0873 50.4503 43.358C50.7307 43.619 50.8708 43.967 50.8708 44.402V47.012H36.0228V45.562C36.0228 45.2816 36.0808 44.982 36.1968 44.663C36.3128 44.344 36.5158 44.054 36.8058 43.793L42.8958 37.6595C43.4178 37.1375 43.8722 36.6396 44.2588 36.166C44.6455 35.6923 44.9645 35.2283 45.2158 34.774C45.4672 34.31 45.6557 33.8508 45.7813 33.3965C45.907 32.9325 45.9698 32.4443 45.9698 31.932C45.9698 31.091 45.7668 30.4481 45.3608 30.0035C44.9645 29.5491 44.3555 29.322 43.5338 29.322C42.8668 29.322 42.3013 29.5008 41.8373 29.8585C41.383 30.2065 41.0688 30.6415 40.8948 31.1635C40.6918 31.6951 40.426 32.048 40.0973 32.222C39.7687 32.396 39.2998 32.4346 38.6908 32.338L36.3128 31.9175C36.4675 30.8638 36.7623 29.9455 37.1973 29.1625C37.642 28.3795 38.1882 27.727 38.8358 27.205C39.4932 26.683 40.2423 26.2963 41.0833 26.045C41.9243 25.784 42.8282 25.6535 43.7948 25.6535C44.8388 25.6535 45.7765 25.8081 46.6078 26.1175C47.4488 26.4171 48.1642 26.8376 48.7538 27.379C49.3435 27.9203 49.793 28.568 50.1023 29.322C50.4213 30.0663 50.5808 30.888 50.5808 31.787C50.5808 32.5603 50.4697 33.2756 50.2473 33.933C50.0347 34.5903 49.7398 35.2186 49.3628 35.818C48.9858 36.4076 48.546 36.9828 48.0433 37.5435C47.5503 38.0945 47.0235 38.6551 46.4628 39.2255L42.3303 43.4595C42.862 43.2951 43.3888 43.1695 43.9108 43.0825C44.4328 42.9955 44.9162 42.952 45.3608 42.952H49.3048ZM62.0526 38.805V33.295C62.0526 32.9566 62.0623 32.5941 62.0816 32.2075C62.1106 31.8111 62.1493 31.4003 62.1976 30.975L56.6151 38.805H62.0526ZM68.1426 38.805V41.328C68.1426 41.5503 68.0653 41.7436 67.9106 41.908C67.7656 42.0723 67.5529 42.1545 67.2726 42.1545H65.9676V47.012H62.0526V42.1545H53.5556C53.2753 42.1545 53.0191 42.0675 52.7871 41.8935C52.5648 41.7195 52.4246 41.502 52.3666 41.241L51.9026 39.0225L61.6756 25.8855H65.9676V38.805H68.1426Z" fill="white"/>
<path d="M144.146 25.8855V27.7705C144.146 28.3311 144.083 28.7855 143.958 29.1335C143.832 29.4718 143.711 29.757 143.595 29.989L136.258 45.533C136.055 45.939 135.765 46.287 135.388 46.577C135.021 46.867 134.528 47.012 133.909 47.012H130.632L138.172 31.8885C138.395 31.4825 138.617 31.1151 138.839 30.7865C139.071 30.4481 139.327 30.1291 139.608 29.8295H130.313C130.178 29.8295 130.047 29.8053 129.922 29.757C129.806 29.699 129.699 29.6265 129.603 29.5395C129.516 29.4428 129.443 29.3365 129.385 29.2205C129.327 29.0948 129.298 28.9691 129.298 28.8435V25.8855H144.146Z" fill="#216900"/>
<g filter="url(#filter6_d_1_539)">
<path d="M186.515 38.5605H182.26V43.1375H179.362V38.5605H175.13V36.0075H179.362V31.4535H182.26V36.0075H186.515V38.5605ZM191.784 33.374C191.784 35.0453 192.558 35.881 194.107 35.881C194.866 35.881 195.449 35.6548 195.855 35.2025C196.269 34.7425 196.476 34.133 196.476 33.374C196.476 32.9676 196.415 32.6111 196.292 32.3045C196.177 31.9901 196.012 31.7295 195.798 31.5225C195.591 31.3155 195.338 31.1583 195.039 31.051C194.74 30.9436 194.414 30.89 194.061 30.89C193.701 30.89 193.379 30.9551 193.095 31.0855C192.819 31.2081 192.581 31.3806 192.382 31.603C192.19 31.8253 192.041 32.0898 191.934 32.3965C191.834 32.6955 191.784 33.0213 191.784 33.374ZM194.636 38.664C194.743 38.5336 194.847 38.4071 194.947 38.2845C195.046 38.1618 195.138 38.0391 195.223 37.9165C194.517 38.2921 193.716 38.48 192.819 38.48C192.275 38.48 191.73 38.3841 191.186 38.1925C190.642 37.9931 190.147 37.6941 189.703 37.2955C189.266 36.8968 188.909 36.3946 188.633 35.789C188.357 35.1833 188.219 34.4665 188.219 33.6385C188.219 32.8795 188.357 32.1626 188.633 31.488C188.917 30.8133 189.315 30.223 189.829 29.717C190.35 29.211 190.971 28.8123 191.692 28.521C192.413 28.222 193.218 28.0725 194.107 28.0725C195.012 28.0725 195.821 28.2105 196.534 28.4865C197.247 28.7625 197.848 29.1496 198.339 29.648C198.837 30.1463 199.217 30.7405 199.478 31.4305C199.746 32.1128 199.88 32.868 199.88 33.696C199.88 34.7923 199.715 35.7736 199.386 36.64C199.056 37.5063 198.615 38.3228 198.063 39.0895L194.452 44.2185C194.291 44.4408 194.046 44.6286 193.716 44.782C193.394 44.9353 193.026 45.012 192.612 45.012H189.323L194.636 38.664ZM212.923 42.436V45.012H203.378V42.436H206.598V33.9835C206.598 33.7688 206.602 33.5541 206.609 33.3395C206.617 33.1171 206.629 32.8948 206.644 32.6725L204.735 34.2595C204.566 34.3898 204.398 34.4703 204.229 34.501C204.068 34.524 203.915 34.524 203.769 34.501C203.623 34.4703 203.493 34.4205 203.378 34.3515C203.263 34.2748 203.179 34.1981 203.125 34.1215L201.998 32.6265L207.219 28.245H210.163V42.436H212.923ZM220.848 42.505C221.247 42.505 221.592 42.4436 221.883 42.321C222.175 42.1983 222.412 42.0335 222.596 41.8265C222.788 41.6118 222.926 41.3626 223.01 41.079C223.102 40.7876 223.148 40.4771 223.148 40.1475C223.148 39.7871 223.11 39.4575 223.033 39.1585C222.957 38.8595 222.83 38.6065 222.654 38.3995C222.477 38.1848 222.24 38.02 221.941 37.905C221.649 37.7823 221.285 37.721 220.848 37.721C220.411 37.721 220.043 37.7823 219.744 37.905C219.453 38.02 219.219 38.1848 219.043 38.3995C218.866 38.6065 218.74 38.8595 218.663 39.1585C218.587 39.4575 218.548 39.7871 218.548 40.1475C218.548 40.4771 218.59 40.7876 218.675 41.079C218.767 41.3626 218.905 41.6118 219.089 41.8265C219.28 42.0335 219.518 42.1983 219.802 42.321C220.093 42.4436 220.442 42.505 220.848 42.505ZM220.848 30.6715C220.488 30.6715 220.185 30.729 219.94 30.844C219.694 30.959 219.491 31.1123 219.33 31.304C219.177 31.488 219.066 31.7026 218.997 31.948C218.928 32.1933 218.893 32.4463 218.893 32.707C218.893 32.9983 218.92 33.282 218.974 33.558C219.027 33.834 219.127 34.0793 219.273 34.294C219.418 34.5086 219.618 34.6811 219.871 34.8115C220.124 34.9418 220.45 35.007 220.848 35.007C221.247 35.007 221.573 34.9418 221.826 34.8115C222.079 34.6811 222.278 34.5086 222.424 34.294C222.569 34.0793 222.669 33.834 222.723 33.558C222.776 33.282 222.803 32.9983 222.803 32.707C222.803 32.4463 222.769 32.1933 222.7 31.948C222.631 31.7026 222.516 31.488 222.355 31.304C222.201 31.1123 221.998 30.959 221.745 30.844C221.5 30.729 221.201 30.6715 220.848 30.6715ZM224.011 36.272C224.509 36.4483 224.935 36.6668 225.287 36.9275C225.648 37.1881 225.939 37.4871 226.161 37.8245C226.391 38.1618 226.56 38.5336 226.667 38.94C226.775 39.3386 226.828 39.7641 226.828 40.2165C226.828 40.9678 226.683 41.6501 226.391 42.2635C226.108 42.8768 225.701 43.402 225.172 43.839C224.651 44.2683 224.022 44.6018 223.286 44.8395C222.55 45.0771 221.738 45.196 220.848 45.196C219.959 45.196 219.146 45.0771 218.41 44.8395C217.674 44.6018 217.042 44.2683 216.513 43.839C215.991 43.402 215.585 42.8768 215.294 42.2635C215.01 41.6501 214.868 40.9678 214.868 40.2165C214.868 39.7641 214.922 39.3386 215.029 38.94C215.137 38.5336 215.301 38.1618 215.524 37.8245C215.754 37.4871 216.045 37.1881 216.398 36.9275C216.758 36.6668 217.187 36.4483 217.686 36.272C216.927 35.927 216.359 35.4516 215.984 34.846C215.608 34.2326 215.42 33.4966 215.42 32.638C215.42 31.9863 215.554 31.3845 215.823 30.8325C216.091 30.2728 216.467 29.7898 216.95 29.3835C217.433 28.9771 218.004 28.659 218.663 28.429C219.33 28.1913 220.059 28.0725 220.848 28.0725C221.638 28.0725 222.362 28.1913 223.022 28.429C223.689 28.659 224.264 28.9771 224.747 29.3835C225.23 29.7898 225.605 30.2728 225.874 30.8325C226.142 31.3845 226.276 31.9863 226.276 32.638C226.276 33.4966 226.088 34.2326 225.713 34.846C225.337 35.4516 224.77 35.927 224.011 36.272ZM240.205 28.2565V29.7515C240.205 30.1961 240.155 30.5565 240.055 30.8325C239.955 31.1008 239.86 31.327 239.768 31.511L233.949 43.839C233.788 44.161 233.558 44.437 233.259 44.667C232.967 44.897 232.576 45.012 232.086 45.012H229.487L235.467 33.0175C235.643 32.6955 235.819 32.4041 235.996 32.1435C236.18 31.8751 236.383 31.6221 236.605 31.3845H229.234C229.126 31.3845 229.023 31.3653 228.923 31.327C228.831 31.281 228.747 31.2235 228.67 31.1545C228.601 31.0778 228.544 30.9935 228.498 30.9015C228.452 30.8018 228.429 30.7021 228.429 30.6025V28.2565H240.205ZM247.509 42.3785C247.877 42.3785 248.218 42.3095 248.532 42.1715C248.854 42.0335 249.13 41.8456 249.36 41.608C249.59 41.3626 249.77 41.079 249.901 40.757C250.039 40.4273 250.108 40.0708 250.108 39.6875C250.108 39.2581 250.043 38.8748 249.912 38.5375C249.79 38.2001 249.613 37.9165 249.383 37.6865C249.153 37.4565 248.873 37.2801 248.544 37.1575C248.222 37.0348 247.861 36.9735 247.463 36.9735C247.102 36.9735 246.773 37.0386 246.474 37.169C246.175 37.2916 245.914 37.4718 245.692 37.7095C245.477 37.9471 245.308 38.2308 245.186 38.5605C245.063 38.8901 245.002 39.262 245.002 39.676C245.002 40.09 245.052 40.4618 245.151 40.7915C245.251 41.1211 245.404 41.4048 245.611 41.6425C245.818 41.8801 246.079 42.0641 246.393 42.1945C246.708 42.3171 247.079 42.3785 247.509 42.3785ZM246.934 34.6965C247.47 34.4971 248.068 34.3975 248.728 34.3975C249.333 34.3975 249.931 34.4971 250.522 34.6965C251.112 34.8958 251.641 35.2025 252.109 35.6165C252.576 36.0305 252.952 36.5556 253.236 37.192C253.527 37.8206 253.673 38.5643 253.673 39.423C253.673 40.205 253.527 40.9486 253.236 41.654C252.944 42.3516 252.53 42.965 251.994 43.494C251.465 44.0153 250.825 44.4293 250.073 44.736C249.322 45.0426 248.49 45.196 247.578 45.196C246.642 45.196 245.803 45.0503 245.059 44.759C244.316 44.46 243.683 44.046 243.162 43.517C242.648 42.988 242.253 42.3555 241.977 41.6195C241.709 40.8835 241.575 40.0746 241.575 39.193C241.575 37.5446 242.211 35.8695 243.484 34.1675L247.256 29.073C247.432 28.8506 247.685 28.659 248.015 28.498C248.352 28.337 248.735 28.2565 249.165 28.2565H252.339L247.371 34.1905L246.934 34.6965ZM259.31 34.156C259.624 34.0946 259.927 34.0525 260.218 34.0295C260.509 34.0065 260.793 33.995 261.069 33.995C261.951 33.995 262.729 34.1291 263.404 34.3975C264.078 34.6658 264.646 35.0338 265.106 35.5015C265.566 35.9615 265.911 36.5058 266.141 37.1345C266.378 37.7555 266.497 38.4225 266.497 39.1355C266.497 40.0325 266.336 40.8528 266.014 41.5965C265.7 42.3325 265.259 42.9688 264.692 43.5055C264.124 44.0421 263.446 44.46 262.656 44.759C261.874 45.0503 261.015 45.196 260.08 45.196C259.536 45.196 259.014 45.1385 258.516 45.0235C258.025 44.9085 257.562 44.7551 257.125 44.5635C256.695 44.3641 256.297 44.138 255.929 43.885C255.561 43.6243 255.227 43.3483 254.928 43.057L256.032 41.585C256.147 41.4316 256.281 41.3166 256.435 41.24C256.588 41.1556 256.753 41.1135 256.929 41.1135C257.159 41.1135 257.374 41.1786 257.573 41.309C257.78 41.4316 258.002 41.5696 258.24 41.723C258.485 41.8686 258.769 42.0028 259.091 42.1255C259.413 42.2481 259.812 42.3095 260.287 42.3095C260.762 42.3095 261.169 42.2328 261.506 42.0795C261.843 41.9185 262.116 41.7038 262.323 41.4355C262.537 41.1595 262.691 40.8413 262.783 40.481C262.882 40.113 262.932 39.722 262.932 39.308C262.932 38.4953 262.702 37.8781 262.242 37.4565C261.782 37.0271 261.13 36.8125 260.287 36.8125C259.536 36.8125 258.8 36.9543 258.079 37.238L255.871 36.64L257.297 28.2565H265.876V29.7285C265.876 29.9738 265.838 30.1961 265.761 30.3955C265.684 30.5948 265.562 30.7711 265.393 30.9245C265.232 31.0701 265.017 31.1851 264.749 31.2695C264.481 31.3461 264.159 31.3845 263.783 31.3845H259.781L259.31 34.156ZM280.23 28.2565V29.7515C280.23 30.1961 280.18 30.5565 280.08 30.8325C279.981 31.1008 279.885 31.327 279.793 31.511L273.974 43.839C273.813 44.161 273.583 44.437 273.284 44.667C272.993 44.897 272.602 45.012 272.111 45.012H269.512L275.492 33.0175C275.668 32.6955 275.845 32.4041 276.021 32.1435C276.205 31.8751 276.408 31.6221 276.63 31.3845H269.259C269.152 31.3845 269.048 31.3653 268.948 31.327C268.856 31.281 268.772 31.2235 268.695 31.1545C268.626 31.0778 268.569 30.9935 268.523 30.9015C268.477 30.8018 268.454 30.7021 268.454 30.6025V28.2565H280.23ZM287.557 42.505C287.956 42.505 288.301 42.4436 288.592 42.321C288.884 42.1983 289.121 42.0335 289.305 41.8265C289.497 41.6118 289.635 41.3626 289.719 41.079C289.811 40.7876 289.857 40.4771 289.857 40.1475C289.857 39.7871 289.819 39.4575 289.742 39.1585C289.666 38.8595 289.539 38.6065 289.363 38.3995C289.186 38.1848 288.949 38.02 288.65 37.905C288.358 37.7823 287.994 37.721 287.557 37.721C287.12 37.721 286.752 37.7823 286.453 37.905C286.162 38.02 285.928 38.1848 285.752 38.3995C285.575 38.6065 285.449 38.8595 285.372 39.1585C285.296 39.4575 285.257 39.7871 285.257 40.1475C285.257 40.4771 285.299 40.7876 285.384 41.079C285.476 41.3626 285.614 41.6118 285.798 41.8265C285.989 42.0335 286.227 42.1983 286.511 42.321C286.802 42.4436 287.151 42.505 287.557 42.505ZM287.557 30.6715C287.197 30.6715 286.894 30.729 286.649 30.844C286.403 30.959 286.2 31.1123 286.039 31.304C285.886 31.488 285.775 31.7026 285.706 31.948C285.637 32.1933 285.602 32.4463 285.602 32.707C285.602 32.9983 285.629 33.282 285.683 33.558C285.736 33.834 285.836 34.0793 285.982 34.294C286.127 34.5086 286.327 34.6811 286.58 34.8115C286.833 34.9418 287.159 35.007 287.557 35.007C287.956 35.007 288.282 34.9418 288.535 34.8115C288.788 34.6811 288.987 34.5086 289.133 34.294C289.278 34.0793 289.378 33.834 289.432 33.558C289.485 33.282 289.512 32.9983 289.512 32.707C289.512 32.4463 289.478 32.1933 289.409 31.948C289.34 31.7026 289.225 31.488 289.064 31.304C288.91 31.1123 288.707 30.959 288.454 30.844C288.209 30.729 287.91 30.6715 287.557 30.6715ZM290.72 36.272C291.218 36.4483 291.644 36.6668 291.996 36.9275C292.357 37.1881 292.648 37.4871 292.87 37.8245C293.1 38.1618 293.269 38.5336 293.376 38.94C293.484 39.3386 293.537 39.7641 293.537 40.2165C293.537 40.9678 293.392 41.6501 293.1 42.2635C292.817 42.8768 292.41 43.402 291.881 43.839C291.36 44.2683 290.731 44.6018 289.995 44.8395C289.259 45.0771 288.447 45.196 287.557 45.196C286.668 45.196 285.855 45.0771 285.119 44.8395C284.383 44.6018 283.751 44.2683 283.222 43.839C282.7 43.402 282.294 42.8768 282.003 42.2635C281.719 41.6501 281.577 40.9678 281.577 40.2165C281.577 39.7641 281.631 39.3386 281.738 38.94C281.846 38.5336 282.01 38.1618 282.233 37.8245C282.463 37.4871 282.754 37.1881 283.107 36.9275C283.467 36.6668 283.896 36.4483 284.395 36.272C283.636 35.927 283.068 35.4516 282.693 34.846C282.317 34.2326 282.129 33.4966 282.129 32.638C282.129 31.9863 282.263 31.3845 282.532 30.8325C282.8 30.2728 283.176 29.7898 283.659 29.3835C284.142 28.9771 284.713 28.659 285.372 28.429C286.039 28.1913 286.768 28.0725 287.557 28.0725C288.347 28.0725 289.071 28.1913 289.731 28.429C290.398 28.659 290.973 28.9771 291.456 29.3835C291.939 29.7898 292.314 30.2728 292.583 30.8325C292.851 31.3845 292.985 31.9863 292.985 32.638C292.985 33.4966 292.797 34.2326 292.422 34.846C292.046 35.4516 291.479 35.927 290.72 36.272ZM298.519 33.374C298.519 35.0453 299.293 35.881 300.842 35.881C301.601 35.881 302.183 35.6548 302.59 35.2025C303.004 34.7425 303.211 34.133 303.211 33.374C303.211 32.9676 303.149 32.6111 303.027 32.3045C302.912 31.9901 302.747 31.7295 302.532 31.5225C302.325 31.3155 302.072 31.1583 301.773 31.051C301.474 30.9436 301.148 30.89 300.796 30.89C300.435 30.89 300.113 30.9551 299.83 31.0855C299.554 31.2081 299.316 31.3806 299.117 31.603C298.925 31.8253 298.775 32.0898 298.668 32.3965C298.568 32.6955 298.519 33.0213 298.519 33.374ZM301.371 38.664C301.478 38.5336 301.581 38.4071 301.681 38.2845C301.781 38.1618 301.873 38.0391 301.957 37.9165C301.252 38.2921 300.451 38.48 299.554 38.48C299.009 38.48 298.465 38.3841 297.921 38.1925C297.376 37.9931 296.882 37.6941 296.437 37.2955C296 36.8968 295.644 36.3946 295.368 35.789C295.092 35.1833 294.954 34.4665 294.954 33.6385C294.954 32.8795 295.092 32.1626 295.368 31.488C295.651 30.8133 296.05 30.223 296.564 29.717C297.085 29.211 297.706 28.8123 298.427 28.521C299.147 28.222 299.952 28.0725 300.842 28.0725C301.746 28.0725 302.555 28.2105 303.268 28.4865C303.981 28.7625 304.583 29.1496 305.074 29.648C305.572 30.1463 305.951 30.7405 306.212 31.4305C306.48 32.1128 306.615 32.868 306.615 33.696C306.615 34.7923 306.45 35.7736 306.12 36.64C305.79 37.5063 305.35 38.3228 304.798 39.0895L301.187 44.2185C301.026 44.4408 300.78 44.6286 300.451 44.782C300.129 44.9353 299.761 45.012 299.347 45.012H296.058L301.371 38.664ZM314.241 42.505C314.639 42.505 314.984 42.4436 315.276 42.321C315.567 42.1983 315.805 42.0335 315.989 41.8265C316.18 41.6118 316.318 41.3626 316.403 41.079C316.495 40.7876 316.541 40.4771 316.541 40.1475C316.541 39.7871 316.502 39.4575 316.426 39.1585C316.349 38.8595 316.223 38.6065 316.046 38.3995C315.87 38.1848 315.632 38.02 315.333 37.905C315.042 37.7823 314.678 37.721 314.241 37.721C313.804 37.721 313.436 37.7823 313.137 37.905C312.845 38.02 312.612 38.1848 312.435 38.3995C312.259 38.6065 312.132 38.8595 312.056 39.1585C311.979 39.4575 311.941 39.7871 311.941 40.1475C311.941 40.4771 311.983 40.7876 312.067 41.079C312.159 41.3626 312.297 41.6118 312.481 41.8265C312.673 42.0335 312.911 42.1983 313.194 42.321C313.486 42.4436 313.834 42.505 314.241 42.505ZM314.241 30.6715C313.88 30.6715 313.578 30.729 313.332 30.844C313.087 30.959 312.884 31.1123 312.723 31.304C312.569 31.488 312.458 31.7026 312.389 31.948C312.32 32.1933 312.286 32.4463 312.286 32.707C312.286 32.9983 312.313 33.282 312.366 33.558C312.42 33.834 312.52 34.0793 312.665 34.294C312.811 34.5086 313.01 34.6811 313.263 34.8115C313.516 34.9418 313.842 35.007 314.241 35.007C314.639 35.007 314.965 34.9418 315.218 34.8115C315.471 34.6811 315.671 34.5086 315.816 34.294C315.962 34.0793 316.062 33.834 316.115 33.558C316.169 33.282 316.196 32.9983 316.196 32.707C316.196 32.4463 316.161 32.1933 316.092 31.948C316.023 31.7026 315.908 31.488 315.747 31.304C315.594 31.1123 315.391 30.959 315.138 30.844C314.892 30.729 314.593 30.6715 314.241 30.6715ZM317.403 36.272C317.902 36.4483 318.327 36.6668 318.68 36.9275C319.04 37.1881 319.331 37.4871 319.554 37.8245C319.784 38.1618 319.952 38.5336 320.06 38.94C320.167 39.3386 320.221 39.7641 320.221 40.2165C320.221 40.9678 320.075 41.6501 319.784 42.2635C319.5 42.8768 319.094 43.402 318.565 43.839C318.043 44.2683 317.415 44.6018 316.679 44.8395C315.943 45.0771 315.13 45.196 314.241 45.196C313.351 45.196 312.539 45.0771 311.803 44.8395C311.067 44.6018 310.434 44.2683 309.905 43.839C309.384 43.402 308.978 42.8768 308.686 42.2635C308.403 41.6501 308.261 40.9678 308.261 40.2165C308.261 39.7641 308.314 39.3386 308.422 38.94C308.529 38.5336 308.694 38.1618 308.916 37.8245C309.146 37.4871 309.438 37.1881 309.79 36.9275C310.151 36.6668 310.58 36.4483 311.078 36.272C310.319 35.927 309.752 35.4516 309.376 34.846C309.001 34.2326 308.813 33.4966 308.813 32.638C308.813 31.9863 308.947 31.3845 309.215 30.8325C309.484 30.2728 309.859 29.7898 310.342 29.3835C310.825 28.9771 311.396 28.659 312.056 28.429C312.723 28.1913 313.451 28.0725 314.241 28.0725C315.03 28.0725 315.755 28.1913 316.414 28.429C317.081 28.659 317.656 28.9771 318.139 29.3835C318.622 29.7898 318.998 30.2728 319.266 30.8325C319.535 31.3845 319.669 31.9863 319.669 32.638C319.669 33.4966 319.481 34.2326 319.105 34.846C318.73 35.4516 318.162 35.927 317.403 36.272ZM328.905 38.503V34.133C328.905 33.8646 328.913 33.5771 328.928 33.2705C328.951 32.9561 328.982 32.6303 329.02 32.293L324.593 38.503H328.905ZM333.735 38.503V40.504C333.735 40.6803 333.674 40.8336 333.551 40.964C333.436 41.0943 333.267 41.1595 333.045 41.1595H332.01V45.012H328.905V41.1595H322.166C321.944 41.1595 321.741 41.0905 321.557 40.9525C321.38 40.8145 321.269 40.642 321.223 40.435L320.855 38.6755L328.606 28.2565H332.01V38.503H333.735Z" fill="white"/>
</g>
<defs>
<filter id="filter0_d_1_539" x="0.152832" y="16.012" width="110.346" height="45.1858" filterUnits="userSpaceOnUse" color-interpolation-filters="sRGB">
<feFlood flood-opacity="0" result="BackgroundImageFix"/>
<feColorMatrix in="SourceAlpha" type="matrix" values="0 0 0 0 0 0 0 0 0 0 0 0 0 0 0 0 0 0 127 0" result="hardAlpha"/>
<feOffset dy="4"/>
<feGaussianBlur stdDeviation="2"/>
<feComposite in2="hardAlpha" operator="out"/>
<feColorMatrix type="matrix" values="0 0 0 0 0 0 0 0 0 0 0 0 0 0 0 0 0 0 0.25 0"/>
<feBlend mode="normal" in2="BackgroundImageFix" result="effect1_dropShadow_1_539"/>
<feBlend mode="normal" in="SourceGraphic" in2="effect1_dropShadow_1_539" result="shape"/>
</filter>
<filter id="filter1_d_1_539" x="88.7769" y="16.012" width="85.376" height="45.3423" filterUnits="userSpaceOnUse" color-interpolation-filters="sRGB">
<feFlood flood-opacity="0" result="BackgroundImageFix"/>
<feColorMatrix in="SourceAlpha" type="matrix" values="0 0 0 0 0 0 0 0 0 0 0 0 0 0 0 0 0 0 127 0" result="hardAlpha"/>
<feOffset dy="4"/>
<feGaussianBlur stdDeviation="2"/>
<feComposite in2="hardAlpha" operator="out"/>
<feColorMatrix type="matrix" values="0 0 0 0 0 0 0 0 0 0 0 0 0 0 0 0 0 0 0.25 0"/>
<feBlend mode="normal" in2="BackgroundImageFix" result="effect1_dropShadow_1_539"/>
<feBlend mode="normal" in="SourceGraphic" in2="effect1_dropShadow_1_539" result="shape"/>
</filter>
<filter id="filter2_d_1_539" x="66.9365" y="8.5022" width="67.4268" height="60.4399" filterUnits="userSpaceOnUse" color-interpolation-filters="sRGB">
<feFlood flood-opacity="0" result="BackgroundImageFix"/>
<feColorMatrix in="SourceAlpha" type="matrix" values="0 0 0 0 0 0 0 0 0 0 0 0 0 0 0 0 0 0 127 0" result="hardAlpha"/>
<feOffset dy="4"/>
<feGaussianBlur stdDeviation="11"/>
<feComposite in2="hardAlpha" operator="out"/>
<feColorMatrix type="matrix" values="0 0 0 0 0 0 0 0 0 0 0 0 0 0 0 0 0 0 0.25 0"/>
<feBlend mode="normal" in2="BackgroundImageFix" result="effect1_dropShadow_1_539"/>
<feBlend mode="normal" in="SourceGraphic" in2="effect1_dropShadow_1_539" result="shape"/>
</filter>
<filter id="filter3_d_1_539" x="95.6777" y="19.4607" width="29.4922" height="24.6074" filterUnits="userSpaceOnUse" color-interpolation-filters="sRGB">
<feFlood flood-opacity="0" result="BackgroundImageFix"/>
<feColorMatrix in="SourceAlpha" type="matrix" values="0 0 0 0 0 0 0 0 0 0 0 0 0 0 0 0 0 0 127 0" result="hardAlpha"/>
<feOffset dy="4"/>
<feGaussianBlur stdDeviation="2"/>
<feComposite in2="hardAlpha" operator="out"/>
<feColorMatrix type="matrix" values="0 0 0 0 0 0 0 0 0 0 0 0 0 0 0 0 0 0 0.25 0"/>
<feBlend mode="normal" in2="BackgroundImageFix" result="effect1_dropShadow_1_539"/>
<feBlend mode="normal" in="SourceGraphic" in2="effect1_dropShadow_1_539" result="shape"/>
</filter>
<filter id="filter4_d_1_539" x="60.3564" y="0.884521" width="68.4468" height="66.0676" filterUnits="userSpaceOnUse" color-interpolation-filters="sRGB">
<feFlood flood-opacity="0" result="BackgroundImageFix"/>
<feColorMatrix in="SourceAlpha" type="matrix" values="0 0 0 0 0 0 0 0 0 0 0 0 0 0 0 0 0 0 127 0" result="hardAlpha"/>
<feOffset dy="4"/>
<feGaussianBlur stdDeviation="13.5"/>
<feComposite in2="hardAlpha" operator="out"/>
<feColorMatrix type="matrix" values="0 0 0 0 0 0 0 0 0 0 0 0 0 0 0 0 0 0 0.25 0"/>
<feBlend mode="normal" in2="BackgroundImageFix" result="effect1_dropShadow_1_539"/>
<feBlend mode="normal" in="SourceGraphic" in2="effect1_dropShadow_1_539" result="shape"/>
</filter>
<filter id="filter5_d_1_539" x="63.4146" y="2.4519" width="74.4702" height="72.5405" filterUnits="userSpaceOnUse" color-interpolation-filters="sRGB">
<feFlood flood-opacity="0" result="BackgroundImageFix"/>
<feColorMatrix in="SourceAlpha" type="matrix" values="0 0 0 0 0 0 0 0 0 0 0 0 0 0 0 0 0 0 127 0" result="hardAlpha"/>
<feOffset dy="4"/>
<feGaussianBlur stdDeviation="17"/>
<feComposite in2="hardAlpha" operator="out"/>
<feColorMatrix type="matrix" values="0 0 0 0 0 0 0 0 0 0 0 0 0 0 0 0 0 0 0.25 0"/>
<feBlend mode="normal" in2="BackgroundImageFix" result="effect1_dropShadow_1_539"/>
<feBlend mode="normal" in="SourceGraphic" in2="effect1_dropShadow_1_539" result="shape"/>
</filter>
<filter id="filter6_d_1_539" x="165.13" y="22.0725" width="178.604" height="37.1235" filterUnits="userSpaceOnUse" color-interpolation-filters="sRGB">
<feFlood flood-opacity="0" result="BackgroundImageFix"/>
<feColorMatrix in="SourceAlpha" type="matrix" values="0 0 0 0 0 0 0 0 0 0 0 0 0 0 0 0 0 0 127 0" result="hardAlpha"/>
<feOffset dy="4"/>
<feGaussianBlur stdDeviation="5"/>
<feComposite in2="hardAlpha" operator="out"/>
<feColorMatrix type="matrix" values="0 0 0 0 0 0 0 0 0 0 0 0 0 0 0 0 0 0 0.25 0"/>
<feBlend mode="normal" in2="BackgroundImageFix" result="effect1_dropShadow_1_539"/>
<feBlend mode="normal" in="SourceGraphic" in2="effect1_dropShadow_1_539" result="shape"/>
</filter>
</defs>
</svg>
