<svg width="17" height="20" viewBox="0 0 17 20" fill="none" xmlns="http://www.w3.org/2000/svg">
<path d="M16.4 8.08477H0.69873M12.0385 0.884766V4.48477M5.0602 0.884766V4.48477M4.88574 18.8848H12.213C13.6786 18.8848 14.4114 18.8848 14.9712 18.5905C15.4636 18.3316 15.8639 17.9186 16.1148 17.4105C16.4 16.833 16.4 16.0769 16.4 14.5648V7.00477C16.4 5.49262 16.4 4.73655 16.1148 4.15899C15.8639 3.65095 15.4636 3.23791 14.9712 2.97905C14.4114 2.68477 13.6786 2.68477 12.213 2.68477H4.88574C3.42015 2.68477 2.68735 2.68477 2.12757 2.97905C1.63517 3.23791 1.23484 3.65095 0.983953 4.15899C0.69873 4.73655 0.69873 5.49262 0.69873 7.00477V14.5648C0.69873 16.0769 0.69873 16.833 0.983953 17.4105C1.23484 17.9186 1.63517 18.3316 2.12757 18.5905C2.68735 18.8848 3.42015 18.8848 4.88574 18.8848Z" stroke="#585858" stroke-width="1.2" stroke-linecap="round" stroke-linejoin="round"/>
</svg>
