<svg width="44" height="44" viewBox="0 0 44 44" fill="none" xmlns="http://www.w3.org/2000/svg">
<path d="M21 38.2739H22.875V35.3989C24.5833 35.3156 26.2813 34.7218 27.9688 33.6177C29.6563 32.5135 30.5 30.7739 30.5 28.3989C30.5 26.6489 29.9583 25.1906 28.875 24.0239C27.7917 22.8573 25.75 21.7323 22.75 20.6489C19.9167 19.6489 18.1458 18.7948 17.4375 18.0864C16.7292 17.3781 16.375 16.3573 16.375 15.0239C16.375 13.6906 16.9062 12.5656 17.9688 11.6489C19.0312 10.7323 20.4167 10.2739 22.125 10.2739C23.375 10.2739 24.4375 10.5552 25.3125 11.1177C26.1875 11.6802 26.9167 12.3989 27.5 13.2739L29.125 12.6489C28.5 11.5239 27.6354 10.5968 26.5312 9.86768C25.4271 9.13851 24.25 8.73226 23 8.64893V5.77393H21.125V8.64893C18.9167 8.98226 17.2604 9.76351 16.1562 10.9927C15.0521 12.2218 14.5 13.5656 14.5 15.0239C14.5 16.7739 15.0625 18.1698 16.1875 19.2114C17.3125 20.2531 19.25 21.2739 22 22.2739C24.7083 23.2739 26.5104 24.1802 27.4062 24.9927C28.3021 25.8052 28.75 26.9406 28.75 28.3989C28.75 30.2739 28.0625 31.6177 26.6875 32.4302C25.3125 33.2427 23.875 33.6489 22.375 33.6489C20.9167 33.6489 19.5938 33.2323 18.4062 32.3989C17.2188 31.5656 16.25 30.3989 15.5 28.8989L13.875 29.6489C14.625 31.2739 15.5938 32.5239 16.7812 33.3989C17.9688 34.2739 19.375 34.8989 21 35.2739V38.2739ZM22 43.7739C19 43.7739 16.1771 43.201 13.5312 42.0552C10.8854 40.9093 8.58333 39.3573 6.625 37.3989C4.66667 35.4406 3.11458 33.1385 1.96875 30.4927C0.822917 27.8468 0.25 25.0239 0.25 22.0239C0.25 19.0239 0.822917 16.201 1.96875 13.5552C3.11458 10.9093 4.66667 8.60726 6.625 6.64893C8.58333 4.69059 10.8854 3.13851 13.5312 1.99268C16.1771 0.846842 19 0.273926 22 0.273926C25 0.273926 27.8229 0.846842 30.4688 1.99268C33.1146 3.13851 35.4167 4.69059 37.375 6.64893C39.3333 8.60726 40.8854 10.9093 42.0312 13.5552C43.1771 16.201 43.75 19.0239 43.75 22.0239C43.75 25.0239 43.1771 27.8468 42.0312 30.4927C40.8854 33.1385 39.3333 35.4406 37.375 37.3989C35.4167 39.3573 33.1146 40.9093 30.4688 42.0552C27.8229 43.201 25 43.7739 22 43.7739ZM22 42.0239C27.5833 42.0239 32.3125 40.0864 36.1875 36.2114C40.0625 32.3364 42 27.6073 42 22.0239C42 16.4406 40.0625 11.7114 36.1875 7.83643C32.3125 3.96143 27.5833 2.02393 22 2.02393C16.4167 2.02393 11.6875 3.96143 7.8125 7.83643C3.9375 11.7114 2 16.4406 2 22.0239C2 27.6073 3.9375 32.3364 7.8125 36.2114C11.6875 40.0864 16.4167 42.0239 22 42.0239Z" fill="#1C1B1F"/>
</svg>
