<svg width="53" height="53" viewBox="0 0 53 53" fill="none" xmlns="http://www.w3.org/2000/svg">
<ellipse cx="26.553" cy="26.412" rx="26.4119" ry="26.412" fill="#216900"/>
<mask id="mask0_1_553" style="mask-type:alpha" maskUnits="userSpaceOnUse" x="8" y="8" width="38" height="38">
<rect x="8.54736" y="8.39844" width="37.2" height="37.2" fill="#D9D9D9"/>
</mask>
<g mask="url(#mask0_1_553)">
<path d="M20.1708 33.9719H34.1208V32.4219H20.1708V33.9719ZM27.1458 29.0239L32.2728 23.8969L31.1758 22.7999L27.9208 26.037V18.4719H26.3708V26.037L23.1158 22.7999L22.0188 23.8969L27.1458 29.0239ZM27.1508 40.9469C25.2219 40.9469 23.4082 40.5808 21.71 39.8487C20.0119 39.1166 18.5348 38.123 17.2785 36.868C16.0222 35.6131 15.0278 34.1372 14.2951 32.4405C13.5622 30.744 13.1958 28.9311 13.1958 27.0019C13.1958 25.0729 13.5619 23.2593 14.294 21.561C15.0261 19.863 16.0196 18.3858 17.2746 17.1296C18.5296 15.8733 20.0055 14.8788 21.7022 14.1462C23.3987 13.4133 25.2115 13.0469 27.1408 13.0469C29.0697 13.0469 30.8834 13.4129 32.5817 14.1451C34.2797 14.8772 35.7568 15.8707 37.0131 17.1257C38.2694 18.3807 39.2638 19.8565 39.9965 21.5533C40.7294 23.2498 41.0958 25.0626 41.0958 26.9918C41.0958 28.9208 40.7297 30.7344 39.9976 32.4327C39.2655 34.1307 38.272 35.6079 37.017 36.8642C35.762 38.1204 34.2861 39.1149 32.5894 39.8475C30.8929 40.5804 29.0801 40.9469 27.1508 40.9469ZM27.1458 39.3969C30.6075 39.3969 33.5396 38.1956 35.9421 35.7931C38.3446 33.3906 39.5458 30.4585 39.5458 26.9969C39.5458 23.5352 38.3446 20.6031 35.9421 18.2006C33.5396 15.7981 30.6075 14.5969 27.1458 14.5969C23.6841 14.5969 20.7521 15.7981 18.3496 18.2006C15.9471 20.6031 14.7458 23.5352 14.7458 26.9969C14.7458 30.4585 15.9471 33.3906 18.3496 35.7931C20.7521 38.1956 23.6841 39.3969 27.1458 39.3969Z" fill="white"/>
</g>
</svg>
