<svg width="802" height="75" viewBox="0 0 802 75" fill="none" xmlns="http://www.w3.org/2000/svg">
<path d="M49.9611 22.4401C49.7961 22.4141 49.6037 22.4141 49.4387 22.4401C45.6437 22.3101 42.6187 19.3721 42.6187 15.7321C42.6187 12.0141 45.7811 9.02405 49.7136 9.02405C53.6461 9.02405 56.8086 12.0401 56.8086 15.7321C56.7811 19.3721 53.7561 22.3101 49.9611 22.4401Z" stroke="#585858" stroke-width="2.4" stroke-linecap="round" stroke-linejoin="round"/>
<path d="M47.1284 41.3679C50.8959 41.9659 55.0484 41.3419 57.9634 39.4959C61.8409 37.0519 61.8409 33.0479 57.9634 30.6039C55.0209 28.7579 50.8134 28.1338 47.0459 28.7578" stroke="#585858" stroke-width="2.4" stroke-linecap="round" stroke-linejoin="round"/>
<path d="M16.8778 22.4401C17.0428 22.4141 17.2353 22.4141 17.4003 22.4401C21.1953 22.3101 24.2203 19.3721 24.2203 15.7321C24.2203 12.0141 21.0578 9.02405 17.1253 9.02405C13.1928 9.02405 10.0303 12.0401 10.0303 15.7321C10.0578 19.3721 13.0828 22.3101 16.8778 22.4401Z" stroke="#585858" stroke-width="2.4" stroke-linecap="round" stroke-linejoin="round"/>
<path d="M19.7109 41.3679C15.9434 41.9659 11.7909 41.3419 8.8759 39.4959C4.9984 37.0519 4.9984 33.0479 8.8759 30.6039C11.8184 28.7579 16.0259 28.1338 19.7934 28.7578" stroke="#585858" stroke-width="2.4" stroke-linecap="round" stroke-linejoin="round"/>
<path d="M33.4611 41.8618C33.2961 41.8358 33.1037 41.8358 32.9387 41.8618C29.1437 41.7318 26.1187 38.7938 26.1187 35.1538C26.1187 31.4358 29.2811 28.4458 33.2136 28.4458C37.1461 28.4458 40.3087 31.4618 40.3087 35.1538C40.2812 38.7938 37.2562 41.7578 33.4611 41.8618Z" stroke="#585858" stroke-width="2.4" stroke-linecap="round" stroke-linejoin="round"/>
<path d="M25.4584 50.0517C21.5809 52.4957 21.5809 56.4997 25.4584 58.9437C29.8584 61.7257 37.0634 61.7257 41.4634 58.9437C45.3409 56.4997 45.3409 52.4957 41.4634 50.0517C37.0909 47.2957 29.8584 47.2957 25.4584 50.0517Z" stroke="#585858" stroke-width="2.4" stroke-linecap="round" stroke-linejoin="round"/>
<path d="M97.3809 8.06393L92.2609 22.0239H88.8609L83.7409 8.06393H86.7409L90.5809 19.1639L94.4009 8.06393H97.3809ZM107.62 19.3639H102.06L101.14 22.0239H98.1997L103.22 8.04392H106.48L111.5 22.0239H108.54L107.62 19.3639ZM106.86 17.1239L104.84 11.2839L102.82 17.1239H106.86ZM118.196 22.1639C117.223 22.1639 116.343 21.9973 115.556 21.6639C114.783 21.3306 114.169 20.8506 113.716 20.2239C113.263 19.5973 113.029 18.8573 113.016 18.0039H116.016C116.056 18.5773 116.256 19.0306 116.616 19.3639C116.989 19.6973 117.496 19.8639 118.136 19.8639C118.789 19.8639 119.303 19.7106 119.676 19.4039C120.049 19.0839 120.236 18.6706 120.236 18.1639C120.236 17.7506 120.109 17.4106 119.856 17.1439C119.603 16.8773 119.283 16.6706 118.896 16.5239C118.523 16.3639 118.003 16.1906 117.336 16.0039C116.429 15.7373 115.689 15.4773 115.116 15.2239C114.556 14.9573 114.069 14.5639 113.656 14.0439C113.256 13.5106 113.056 12.8039 113.056 11.9239C113.056 11.0973 113.263 10.3773 113.676 9.76393C114.089 9.15059 114.669 8.68393 115.416 8.36393C116.163 8.03059 117.016 7.86393 117.976 7.86393C119.416 7.86393 120.583 8.21726 121.476 8.92393C122.383 9.61726 122.883 10.5906 122.976 11.8439H119.896C119.869 11.3639 119.663 10.9706 119.276 10.6639C118.903 10.3439 118.403 10.1839 117.776 10.1839C117.229 10.1839 116.789 10.3239 116.456 10.6039C116.136 10.8839 115.976 11.2906 115.976 11.8239C115.976 12.1973 116.096 12.5106 116.336 12.7639C116.589 13.0039 116.896 13.2039 117.256 13.3639C117.629 13.5106 118.149 13.6839 118.816 13.8839C119.723 14.1506 120.463 14.4173 121.036 14.6839C121.609 14.9506 122.103 15.3506 122.516 15.8839C122.929 16.4173 123.136 17.1173 123.136 17.9839C123.136 18.7306 122.943 19.4239 122.556 20.0639C122.169 20.7039 121.603 21.2173 120.856 21.6039C120.109 21.9773 119.223 22.1639 118.196 22.1639ZM135.064 8.06393V10.3239H131.344V22.0239H128.544V10.3239H124.824V8.06393H135.064ZM150.492 8.06393V10.3239H144.672V13.9039H149.132V16.1239H144.672V22.0239H141.872V8.06393H150.492ZM155.278 19.8039H159.878V22.0239H152.478V8.06393H155.278V19.8039ZM164.457 10.3239V13.8239H169.157V16.0439H164.457V19.7439H169.757V22.0239H161.657V8.04392H169.757V10.3239H164.457ZM175.102 10.3239V13.8239H179.802V16.0439H175.102V19.7439H180.402V22.0239H172.302V8.04392H180.402V10.3239H175.102ZM192.446 8.06393V10.3239H188.726V22.0239H185.926V10.3239H182.206V8.06393H192.446Z" fill="#216900"/>
<path d="M98.7089 34.8719L95.4769 46.0239H93.8449L91.2529 37.0479L88.5649 46.0239L86.9489 46.0399L83.8289 34.8719H85.3809L87.8129 44.3279L90.5009 34.8719H92.1329L94.6929 44.2959L97.1409 34.8719H98.7089ZM108.302 41.3039C108.302 41.5813 108.286 41.8746 108.254 42.1839H101.246C101.3 43.0479 101.593 43.7253 102.126 44.2159C102.67 44.6959 103.326 44.9359 104.094 44.9359C104.724 44.9359 105.246 44.7919 105.662 44.5039C106.089 44.2053 106.388 43.8106 106.558 43.3199H108.126C107.892 44.1626 107.422 44.8506 106.718 45.3839C106.014 45.9066 105.14 46.1679 104.094 46.1679C103.262 46.1679 102.516 45.9813 101.854 45.6079C101.204 45.2346 100.692 44.7066 100.318 44.0239C99.945 43.3306 99.7583 42.5306 99.7583 41.6239C99.7583 40.7173 99.9396 39.9226 100.302 39.2399C100.665 38.5573 101.172 38.0346 101.822 37.6719C102.484 37.2986 103.241 37.1119 104.094 37.1119C104.926 37.1119 105.662 37.2933 106.302 37.6559C106.942 38.0186 107.433 38.5199 107.774 39.1599C108.126 39.7893 108.302 40.5039 108.302 41.3039ZM106.798 40.9999C106.798 40.4453 106.676 39.9706 106.43 39.5759C106.185 39.1706 105.849 38.8666 105.422 38.6639C105.006 38.4506 104.542 38.3439 104.03 38.3439C103.294 38.3439 102.665 38.5786 102.142 39.0479C101.63 39.5173 101.337 40.1679 101.262 40.9999H106.798ZM123.082 34.8719V46.0239H121.626V40.9679H115.946V46.0239H114.49V34.8719H115.946V39.7679H121.626V34.8719H123.082ZM125.024 41.6079C125.024 40.7119 125.205 39.9279 125.568 39.2559C125.931 38.5733 126.427 38.0453 127.056 37.6719C127.696 37.2986 128.405 37.1119 129.184 37.1119C129.952 37.1119 130.619 37.2773 131.184 37.6079C131.749 37.9386 132.171 38.3546 132.448 38.8559V37.2559H133.92V46.0239H132.448V44.3919C132.16 44.9039 131.728 45.3306 131.152 45.6719C130.587 46.0026 129.925 46.1679 129.168 46.1679C128.389 46.1679 127.685 45.9759 127.056 45.5919C126.427 45.2079 125.931 44.6693 125.568 43.9759C125.205 43.2826 125.024 42.4933 125.024 41.6079ZM132.448 41.6239C132.448 40.9626 132.315 40.3866 132.048 39.8959C131.781 39.4053 131.419 39.0319 130.96 38.7759C130.512 38.5093 130.016 38.3759 129.472 38.3759C128.928 38.3759 128.432 38.5039 127.984 38.7599C127.536 39.0159 127.179 39.3893 126.912 39.8799C126.645 40.3706 126.512 40.9466 126.512 41.6079C126.512 42.2799 126.645 42.8666 126.912 43.3679C127.179 43.8586 127.536 44.2373 127.984 44.5039C128.432 44.7599 128.928 44.8879 129.472 44.8879C130.016 44.8879 130.512 44.7599 130.96 44.5039C131.419 44.2373 131.781 43.8586 132.048 43.3679C132.315 42.8666 132.448 42.2853 132.448 41.6239ZM139.644 44.6799L142.364 37.2559H143.916L140.476 46.0239H138.78L135.34 37.2559H136.908L139.644 44.6799ZM153.349 41.3039C153.349 41.5813 153.333 41.8746 153.301 42.1839H146.293C146.347 43.0479 146.64 43.7253 147.173 44.2159C147.717 44.6959 148.373 44.9359 149.141 44.9359C149.771 44.9359 150.293 44.7919 150.709 44.5039C151.136 44.2053 151.435 43.8106 151.605 43.3199H153.173C152.939 44.1626 152.469 44.8506 151.765 45.3839C151.061 45.9066 150.187 46.1679 149.141 46.1679C148.309 46.1679 147.563 45.9813 146.901 45.6079C146.251 45.2346 145.739 44.7066 145.365 44.0239C144.992 43.3306 144.805 42.5306 144.805 41.6239C144.805 40.7173 144.987 39.9226 145.349 39.2399C145.712 38.5573 146.219 38.0346 146.869 37.6719C147.531 37.2986 148.288 37.1119 149.141 37.1119C149.973 37.1119 150.709 37.2933 151.349 37.6559C151.989 38.0186 152.48 38.5199 152.821 39.1599C153.173 39.7893 153.349 40.5039 153.349 41.3039ZM151.845 40.9999C151.845 40.4453 151.723 39.9706 151.477 39.5759C151.232 39.1706 150.896 38.8666 150.469 38.6639C150.053 38.4506 149.589 38.3439 149.077 38.3439C148.341 38.3439 147.712 38.5786 147.189 39.0479C146.677 39.5173 146.384 40.1679 146.309 40.9999H151.845ZM166.129 43.5439H161.265L160.369 46.0239H158.833L162.865 34.9359H164.545L168.561 46.0239H167.025L166.129 43.5439ZM165.713 42.3599L163.697 36.7279L161.681 42.3599H165.713ZM171.774 34.1839V46.0239H170.318V34.1839H171.774ZM175.711 34.1839V46.0239H174.255V34.1839H175.711ZM188.507 46.0239L183.915 40.9359V46.0239H182.459V34.8719H183.915V40.0399L188.523 34.8719H190.363L185.307 40.4559L190.411 46.0239H188.507ZM192.789 35.8319C192.511 35.8319 192.277 35.7359 192.085 35.5439C191.893 35.3519 191.797 35.1173 191.797 34.8399C191.797 34.5626 191.893 34.3279 192.085 34.1359C192.277 33.9439 192.511 33.8479 192.789 33.8479C193.055 33.8479 193.279 33.9439 193.461 34.1359C193.653 34.3279 193.749 34.5626 193.749 34.8399C193.749 35.1173 193.653 35.3519 193.461 35.5439C193.279 35.7359 193.055 35.8319 192.789 35.8319ZM193.493 37.2559V46.0239H192.037V37.2559H193.493ZM200.246 37.0959C201.313 37.0959 202.177 37.4213 202.838 38.0719C203.5 38.7119 203.83 39.6399 203.83 40.8559V46.0239H202.39V41.0639C202.39 40.1893 202.172 39.5226 201.734 39.0639C201.297 38.5946 200.7 38.3599 199.942 38.3599C199.174 38.3599 198.561 38.5999 198.102 39.0799C197.654 39.5599 197.43 40.2586 197.43 41.1759V46.0239H195.974V37.2559H197.43V38.5039C197.718 38.0559 198.108 37.7093 198.598 37.4639C199.1 37.2186 199.649 37.0959 200.246 37.0959ZM205.665 41.6079C205.665 40.7119 205.846 39.9279 206.209 39.2559C206.571 38.5733 207.067 38.0453 207.697 37.6719C208.337 37.2986 209.051 37.1119 209.841 37.1119C210.523 37.1119 211.158 37.2719 211.745 37.5919C212.331 37.9013 212.779 38.3119 213.089 38.8239V34.1839H214.561V46.0239H213.089V44.3759C212.801 44.8986 212.374 45.3306 211.809 45.6719C211.243 46.0026 210.582 46.1679 209.825 46.1679C209.046 46.1679 208.337 45.9759 207.697 45.5919C207.067 45.2079 206.571 44.6693 206.209 43.9759C205.846 43.2826 205.665 42.4933 205.665 41.6079ZM213.089 41.6239C213.089 40.9626 212.955 40.3866 212.689 39.8959C212.422 39.4053 212.059 39.0319 211.601 38.7759C211.153 38.5093 210.657 38.3759 210.113 38.3759C209.569 38.3759 209.073 38.5039 208.625 38.7599C208.177 39.0159 207.819 39.3893 207.553 39.8799C207.286 40.3706 207.153 40.9466 207.153 41.6079C207.153 42.2799 207.286 42.8666 207.553 43.3679C207.819 43.8586 208.177 44.2373 208.625 44.5039C209.073 44.7599 209.569 44.8879 210.113 44.8879C210.657 44.8879 211.153 44.7599 211.601 44.5039C212.059 44.2373 212.422 43.8586 212.689 43.3679C212.955 42.8666 213.089 42.2853 213.089 41.6239ZM220.125 46.1679C219.453 46.1679 218.85 46.0559 218.317 45.8319C217.784 45.5973 217.362 45.2773 217.053 44.8719C216.744 44.4559 216.573 43.9813 216.541 43.4479H218.045C218.088 43.8853 218.29 44.2426 218.653 44.5199C219.026 44.7973 219.512 44.9359 220.109 44.9359C220.664 44.9359 221.101 44.8133 221.421 44.5679C221.741 44.3226 221.901 44.0133 221.901 43.6399C221.901 43.2559 221.73 42.9733 221.389 42.7919C221.048 42.5999 220.52 42.4133 219.805 42.2319C219.154 42.0613 218.621 41.8906 218.205 41.7199C217.8 41.5386 217.448 41.2773 217.149 40.9359C216.861 40.5839 216.717 40.1253 216.717 39.5599C216.717 39.1119 216.85 38.7013 217.117 38.3279C217.384 37.9546 217.762 37.6613 218.253 37.4479C218.744 37.2239 219.304 37.1119 219.933 37.1119C220.904 37.1119 221.688 37.3573 222.285 37.8479C222.882 38.3386 223.202 39.0106 223.245 39.8639H221.789C221.757 39.4053 221.57 39.0373 221.229 38.7599C220.898 38.4826 220.45 38.3439 219.885 38.3439C219.362 38.3439 218.946 38.4559 218.637 38.6799C218.328 38.9039 218.173 39.1973 218.173 39.5599C218.173 39.8479 218.264 40.0879 218.445 40.2799C218.637 40.4613 218.872 40.6106 219.149 40.7279C219.437 40.8346 219.832 40.9573 220.333 41.0959C220.962 41.2666 221.474 41.4373 221.869 41.6079C222.264 41.7679 222.6 42.0133 222.877 42.3439C223.165 42.6746 223.314 43.1066 223.325 43.6399C223.325 44.1199 223.192 44.5519 222.925 44.9359C222.658 45.3199 222.28 45.6239 221.789 45.8479C221.309 46.0613 220.754 46.1679 220.125 46.1679ZM234.702 46.1359C233.667 46.1359 232.723 45.8959 231.87 45.4159C231.017 44.9253 230.339 44.2479 229.838 43.3839C229.347 42.5093 229.102 41.5279 229.102 40.4399C229.102 39.3519 229.347 38.3759 229.838 37.5119C230.339 36.6373 231.017 35.9599 231.87 35.4799C232.723 34.9893 233.667 34.7439 234.702 34.7439C235.747 34.7439 236.697 34.9893 237.55 35.4799C238.403 35.9599 239.075 36.6319 239.566 37.4959C240.057 38.3599 240.302 39.3413 240.302 40.4399C240.302 41.5386 240.057 42.5199 239.566 43.3839C239.075 44.2479 238.403 44.9253 237.55 45.4159C236.697 45.8959 235.747 46.1359 234.702 46.1359ZM234.702 44.8719C235.481 44.8719 236.179 44.6906 236.798 44.3279C237.427 43.9653 237.918 43.4479 238.27 42.7759C238.633 42.1039 238.814 41.3253 238.814 40.4399C238.814 39.5439 238.633 38.7653 238.27 38.1039C237.918 37.4319 237.433 36.9146 236.814 36.5519C236.195 36.1893 235.491 36.0079 234.702 36.0079C233.913 36.0079 233.209 36.1893 232.59 36.5519C231.971 36.9146 231.481 37.4319 231.118 38.1039C230.766 38.7653 230.59 39.5439 230.59 40.4399C230.59 41.3253 230.766 42.1039 231.118 42.7759C231.481 43.4479 231.971 43.9653 232.59 44.3279C233.219 44.6906 233.923 44.8719 234.702 44.8719ZM245.792 38.4559H243.952V46.0239H242.496V38.4559H241.36V37.2559H242.496V36.6319C242.496 35.6506 242.747 34.9359 243.248 34.4879C243.76 34.0293 244.576 33.7999 245.696 33.7999V35.0159C245.056 35.0159 244.603 35.1439 244.336 35.3999C244.08 35.6453 243.952 36.0559 243.952 36.6319V37.2559H245.792V38.4559ZM251.211 40.4399C251.211 39.3519 251.457 38.3759 251.947 37.5119C252.438 36.6373 253.105 35.9546 253.947 35.4639C254.801 34.9733 255.745 34.7279 256.779 34.7279C257.995 34.7279 259.057 35.0213 259.963 35.6079C260.87 36.1946 261.531 37.0266 261.947 38.1039H260.203C259.894 37.4319 259.446 36.9146 258.859 36.5519C258.283 36.1893 257.59 36.0079 256.779 36.0079C256.001 36.0079 255.302 36.1893 254.683 36.5519C254.065 36.9146 253.579 37.4319 253.227 38.1039C252.875 38.7653 252.699 39.5439 252.699 40.4399C252.699 41.3253 252.875 42.1039 253.227 42.7759C253.579 43.4373 254.065 43.9493 254.683 44.3119C255.302 44.6746 256.001 44.8559 256.779 44.8559C257.59 44.8559 258.283 44.6799 258.859 44.3279C259.446 43.9653 259.894 43.4479 260.203 42.7759H261.947C261.531 43.8426 260.87 44.6693 259.963 45.2559C259.057 45.8319 257.995 46.1199 256.779 46.1199C255.745 46.1199 254.801 45.8799 253.947 45.3999C253.105 44.9093 252.438 44.2319 251.947 43.3679C251.457 42.5039 251.211 41.5279 251.211 40.4399ZM263.571 41.6079C263.571 40.7119 263.752 39.9279 264.115 39.2559C264.477 38.5733 264.973 38.0453 265.603 37.6719C266.243 37.2986 266.952 37.1119 267.731 37.1119C268.499 37.1119 269.165 37.2773 269.731 37.6079C270.296 37.9386 270.717 38.3546 270.995 38.8559V37.2559H272.467V46.0239H270.995V44.3919C270.707 44.9039 270.275 45.3306 269.699 45.6719C269.133 46.0026 268.472 46.1679 267.715 46.1679C266.936 46.1679 266.232 45.9759 265.603 45.5919C264.973 45.2079 264.477 44.6693 264.115 43.9759C263.752 43.2826 263.571 42.4933 263.571 41.6079ZM270.995 41.6239C270.995 40.9626 270.861 40.3866 270.595 39.8959C270.328 39.4053 269.965 39.0319 269.507 38.7759C269.059 38.5093 268.563 38.3759 268.019 38.3759C267.475 38.3759 266.979 38.5039 266.531 38.7599C266.083 39.0159 265.725 39.3893 265.459 39.8799C265.192 40.3706 265.059 40.9466 265.059 41.6079C265.059 42.2799 265.192 42.8666 265.459 43.3679C265.725 43.8586 266.083 44.2373 266.531 44.5039C266.979 44.7599 267.475 44.8879 268.019 44.8879C268.563 44.8879 269.059 44.7599 269.507 44.5039C269.965 44.2373 270.328 43.8586 270.595 43.3679C270.861 42.8666 270.995 42.2853 270.995 41.6239ZM276.383 38.6799C276.639 38.1786 277.002 37.7893 277.471 37.5119C277.951 37.2346 278.533 37.0959 279.215 37.0959V38.5999H278.831C277.199 38.5999 276.383 39.4853 276.383 41.2559V46.0239H274.927V37.2559H276.383V38.6799ZM290.218 46.1359C289.183 46.1359 288.239 45.8959 287.386 45.4159C286.532 44.9253 285.855 44.2479 285.354 43.3839C284.863 42.5093 284.618 41.5279 284.618 40.4399C284.618 39.3519 284.863 38.3759 285.354 37.5119C285.855 36.6373 286.532 35.9599 287.386 35.4799C288.239 34.9893 289.183 34.7439 290.218 34.7439C291.263 34.7439 292.212 34.9893 293.066 35.4799C293.919 35.9599 294.591 36.6319 295.082 37.4959C295.572 38.3599 295.818 39.3413 295.818 40.4399C295.818 41.5386 295.572 42.5199 295.082 43.3839C294.591 44.2479 293.919 44.9253 293.066 45.4159C292.212 45.8959 291.263 46.1359 290.218 46.1359ZM290.218 44.8719C290.996 44.8719 291.695 44.6906 292.314 44.3279C292.943 43.9653 293.434 43.4479 293.786 42.7759C294.148 42.1039 294.33 41.3253 294.33 40.4399C294.33 39.5439 294.148 38.7653 293.786 38.1039C293.434 37.4319 292.948 36.9146 292.33 36.5519C291.711 36.1893 291.007 36.0079 290.218 36.0079C289.428 36.0079 288.724 36.1893 288.106 36.5519C287.487 36.9146 286.996 37.4319 286.634 38.1039C286.282 38.7653 286.106 39.5439 286.106 40.4399C286.106 41.3253 286.282 42.1039 286.634 42.7759C286.996 43.4479 287.487 43.9653 288.106 44.3279C288.735 44.6906 289.439 44.8719 290.218 44.8719ZM302.012 37.0959C303.078 37.0959 303.942 37.4213 304.604 38.0719C305.265 38.7119 305.596 39.6399 305.596 40.8559V46.0239H304.156V41.0639C304.156 40.1893 303.937 39.5226 303.5 39.0639C303.062 38.5946 302.465 38.3599 301.708 38.3599C300.94 38.3599 300.326 38.5999 299.868 39.0799C299.42 39.5599 299.196 40.2586 299.196 41.1759V46.0239H297.74V37.2559H299.196V38.5039C299.484 38.0559 299.873 37.7093 300.364 37.4639C300.865 37.2186 301.414 37.0959 302.012 37.0959ZM318.112 46.0239L315.456 41.4639H313.696V46.0239H312.24V34.8719H315.84C316.682 34.8719 317.392 35.0159 317.968 35.3039C318.554 35.5919 318.992 35.9813 319.28 36.4719C319.568 36.9626 319.712 37.5226 319.712 38.1519C319.712 38.9199 319.488 39.5973 319.04 40.1839C318.602 40.7706 317.941 41.1599 317.056 41.3519L319.856 46.0239H318.112ZM313.696 40.2959H315.84C316.629 40.2959 317.221 40.1039 317.616 39.7199C318.01 39.3253 318.208 38.8026 318.208 38.1519C318.208 37.4906 318.01 36.9786 317.616 36.6159C317.232 36.2533 316.64 36.0719 315.84 36.0719H313.696V40.2959ZM329.974 41.3039C329.974 41.5813 329.958 41.8746 329.926 42.1839H322.918C322.972 43.0479 323.265 43.7253 323.798 44.2159C324.342 44.6959 324.998 44.9359 325.766 44.9359C326.396 44.9359 326.918 44.7919 327.334 44.5039C327.761 44.2053 328.06 43.8106 328.23 43.3199H329.798C329.564 44.1626 329.094 44.8506 328.39 45.3839C327.686 45.9066 326.812 46.1679 325.766 46.1679C324.934 46.1679 324.188 45.9813 323.526 45.6079C322.876 45.2346 322.364 44.7066 321.99 44.0239C321.617 43.3306 321.43 42.5306 321.43 41.6239C321.43 40.7173 321.612 39.9226 321.974 39.2399C322.337 38.5573 322.844 38.0346 323.494 37.6719C324.156 37.2986 324.913 37.1119 325.766 37.1119C326.598 37.1119 327.334 37.2933 327.974 37.6559C328.614 38.0186 329.105 38.5199 329.446 39.1599C329.798 39.7893 329.974 40.5039 329.974 41.3039ZM328.47 40.9999C328.47 40.4453 328.348 39.9706 328.102 39.5759C327.857 39.1706 327.521 38.8666 327.094 38.6639C326.678 38.4506 326.214 38.3439 325.702 38.3439C324.966 38.3439 324.337 38.5786 323.814 39.0479C323.302 39.5173 323.009 40.1679 322.934 40.9999H328.47ZM336.168 37.0959C337.235 37.0959 338.099 37.4213 338.76 38.0719C339.421 38.7119 339.752 39.6399 339.752 40.8559V46.0239H338.312V41.0639C338.312 40.1893 338.093 39.5226 337.656 39.0639C337.219 38.5946 336.621 38.3599 335.864 38.3599C335.096 38.3599 334.483 38.5999 334.024 39.0799C333.576 39.5599 333.352 40.2586 333.352 41.1759V46.0239H331.896V37.2559H333.352V38.5039C333.64 38.0559 334.029 37.7093 334.52 37.4639C335.021 37.2186 335.571 37.0959 336.168 37.0959ZM343.906 38.4559V43.6239C343.906 44.0506 343.997 44.3546 344.178 44.5359C344.36 44.7066 344.674 44.7919 345.122 44.7919H346.194V46.0239H344.882C344.072 46.0239 343.464 45.8373 343.058 45.4639C342.653 45.0906 342.45 44.4773 342.45 43.6239V38.4559H341.314V37.2559H342.45V35.0479H343.906V37.2559H346.194V38.4559H343.906ZM358.816 43.5439H353.952L353.056 46.0239H351.52L355.552 34.9359H357.232L361.248 46.0239H359.712L358.816 43.5439ZM358.4 42.3599L356.384 36.7279L354.368 42.3599H358.4ZM366.269 44.6799L368.989 37.2559H370.541L367.101 46.0239H365.405L361.965 37.2559H363.533L366.269 44.6799ZM371.43 41.6079C371.43 40.7119 371.612 39.9279 371.974 39.2559C372.337 38.5733 372.833 38.0453 373.462 37.6719C374.102 37.2986 374.812 37.1119 375.59 37.1119C376.358 37.1119 377.025 37.2773 377.59 37.6079C378.156 37.9386 378.577 38.3546 378.854 38.8559V37.2559H380.326V46.0239H378.854V44.3919C378.566 44.9039 378.134 45.3306 377.558 45.6719C376.993 46.0026 376.332 46.1679 375.574 46.1679C374.796 46.1679 374.092 45.9759 373.462 45.5919C372.833 45.2079 372.337 44.6693 371.974 43.9759C371.612 43.2826 371.43 42.4933 371.43 41.6079ZM378.854 41.6239C378.854 40.9626 378.721 40.3866 378.454 39.8959C378.188 39.4053 377.825 39.0319 377.366 38.7759C376.918 38.5093 376.422 38.3759 375.878 38.3759C375.334 38.3759 374.838 38.5039 374.39 38.7599C373.942 39.0159 373.585 39.3893 373.318 39.8799C373.052 40.3706 372.918 40.9466 372.918 41.6079C372.918 42.2799 373.052 42.8666 373.318 43.3679C373.585 43.8586 373.942 44.2373 374.39 44.5039C374.838 44.7599 375.334 44.8879 375.878 44.8879C376.422 44.8879 376.918 44.7599 377.366 44.5039C377.825 44.2373 378.188 43.8586 378.454 43.3679C378.721 42.8666 378.854 42.2853 378.854 41.6239ZM383.539 35.8319C383.261 35.8319 383.027 35.7359 382.835 35.5439C382.643 35.3519 382.547 35.1173 382.547 34.8399C382.547 34.5626 382.643 34.3279 382.835 34.1359C383.027 33.9439 383.261 33.8479 383.539 33.8479C383.805 33.8479 384.029 33.9439 384.211 34.1359C384.403 34.3279 384.499 34.5626 384.499 34.8399C384.499 35.1173 384.403 35.3519 384.211 35.5439C384.029 35.7359 383.805 35.8319 383.539 35.8319ZM384.243 37.2559V46.0239H382.787V37.2559H384.243ZM388.18 34.1839V46.0239H386.724V34.1839H388.18ZM390.118 41.6079C390.118 40.7119 390.299 39.9279 390.662 39.2559C391.024 38.5733 391.52 38.0453 392.15 37.6719C392.79 37.2986 393.499 37.1119 394.278 37.1119C395.046 37.1119 395.712 37.2773 396.278 37.6079C396.843 37.9386 397.264 38.3546 397.542 38.8559V37.2559H399.014V46.0239H397.542V44.3919C397.254 44.9039 396.822 45.3306 396.246 45.6719C395.68 46.0026 395.019 46.1679 394.262 46.1679C393.483 46.1679 392.779 45.9759 392.15 45.5919C391.52 45.2079 391.024 44.6693 390.662 43.9759C390.299 43.2826 390.118 42.4933 390.118 41.6079ZM397.542 41.6239C397.542 40.9626 397.408 40.3866 397.142 39.8959C396.875 39.4053 396.512 39.0319 396.054 38.7759C395.606 38.5093 395.11 38.3759 394.566 38.3759C394.022 38.3759 393.526 38.5039 393.078 38.7599C392.63 39.0159 392.272 39.3893 392.006 39.8799C391.739 40.3706 391.606 40.9466 391.606 41.6079C391.606 42.2799 391.739 42.8666 392.006 43.3679C392.272 43.8586 392.63 44.2373 393.078 44.5039C393.526 44.7599 394.022 44.8879 394.566 44.8879C395.11 44.8879 395.606 44.7599 396.054 44.5039C396.512 44.2373 396.875 43.8586 397.142 43.3679C397.408 42.8666 397.542 42.2853 397.542 41.6239ZM402.93 38.8879C403.229 38.3653 403.666 37.9386 404.242 37.6079C404.818 37.2773 405.474 37.1119 406.21 37.1119C407 37.1119 407.709 37.2986 408.338 37.6719C408.968 38.0453 409.464 38.5733 409.826 39.2559C410.189 39.9279 410.37 40.7119 410.37 41.6079C410.37 42.4933 410.189 43.2826 409.826 43.9759C409.464 44.6693 408.962 45.2079 408.322 45.5919C407.693 45.9759 406.989 46.1679 406.21 46.1679C405.453 46.1679 404.786 46.0026 404.21 45.6719C403.645 45.3413 403.218 44.9199 402.93 44.4079V46.0239H401.474V34.1839H402.93V38.8879ZM408.882 41.6079C408.882 40.9466 408.749 40.3706 408.482 39.8799C408.216 39.3893 407.853 39.0159 407.394 38.7599C406.946 38.5039 406.45 38.3759 405.906 38.3759C405.373 38.3759 404.877 38.5093 404.418 38.7759C403.97 39.0319 403.608 39.4106 403.33 39.9119C403.064 40.4026 402.93 40.9733 402.93 41.6239C402.93 42.2853 403.064 42.8666 403.33 43.3679C403.608 43.8586 403.97 44.2373 404.418 44.5039C404.877 44.7599 405.373 44.8879 405.906 44.8879C406.45 44.8879 406.946 44.7599 407.394 44.5039C407.853 44.2373 408.216 43.8586 408.482 43.3679C408.749 42.8666 408.882 42.2799 408.882 41.6079ZM413.743 34.1839V46.0239H412.287V34.1839H413.743ZM424.224 41.3039C424.224 41.5813 424.208 41.8746 424.176 42.1839H417.168C417.222 43.0479 417.515 43.7253 418.048 44.2159C418.592 44.6959 419.248 44.9359 420.016 44.9359C420.646 44.9359 421.168 44.7919 421.584 44.5039C422.011 44.2053 422.31 43.8106 422.48 43.3199H424.048C423.814 44.1626 423.344 44.8506 422.64 45.3839C421.936 45.9066 421.062 46.1679 420.016 46.1679C419.184 46.1679 418.438 45.9813 417.776 45.6079C417.126 45.2346 416.614 44.7066 416.24 44.0239C415.867 43.3306 415.68 42.5306 415.68 41.6239C415.68 40.7173 415.862 39.9226 416.224 39.2399C416.587 38.5573 417.094 38.0346 417.744 37.6719C418.406 37.2986 419.163 37.1119 420.016 37.1119C420.848 37.1119 421.584 37.2933 422.224 37.6559C422.864 38.0186 423.355 38.5199 423.696 39.1599C424.048 39.7893 424.224 40.5039 424.224 41.3039ZM422.72 40.9999C422.72 40.4453 422.598 39.9706 422.352 39.5759C422.107 39.1706 421.771 38.8666 421.344 38.6639C420.928 38.4506 420.464 38.3439 419.952 38.3439C419.216 38.3439 418.587 38.5786 418.064 39.0479C417.552 39.5173 417.259 40.1679 417.184 40.9999H422.72ZM431.868 44.8399H435.772V46.0239H430.412V34.8719H431.868V44.8399ZM438.07 35.8319C437.793 35.8319 437.558 35.7359 437.366 35.5439C437.174 35.3519 437.078 35.1173 437.078 34.8399C437.078 34.5626 437.174 34.3279 437.366 34.1359C437.558 33.9439 437.793 33.8479 438.07 33.8479C438.337 33.8479 438.561 33.9439 438.742 34.1359C438.934 34.3279 439.03 34.5626 439.03 34.8399C439.03 35.1173 438.934 35.3519 438.742 35.5439C438.561 35.7359 438.337 35.8319 438.07 35.8319ZM438.774 37.2559V46.0239H437.318V37.2559H438.774ZM446.151 46.0239L442.711 42.1519V46.0239H441.255V34.1839H442.711V41.1439L446.087 37.2559H448.119L443.991 41.6239L448.135 46.0239H446.151ZM457.49 41.3039C457.49 41.5813 457.474 41.8746 457.442 42.1839H450.434C450.487 43.0479 450.78 43.7253 451.314 44.2159C451.858 44.6959 452.514 44.9359 453.282 44.9359C453.911 44.9359 454.434 44.7919 454.85 44.5039C455.276 44.2053 455.575 43.8106 455.746 43.3199H457.314C457.079 44.1626 456.61 44.8506 455.906 45.3839C455.202 45.9066 454.327 46.1679 453.282 46.1679C452.45 46.1679 451.703 45.9813 451.042 45.6079C450.391 45.2346 449.879 44.7066 449.506 44.0239C449.132 43.3306 448.946 42.5306 448.946 41.6239C448.946 40.7173 449.127 39.9226 449.49 39.2399C449.852 38.5573 450.359 38.0346 451.01 37.6719C451.671 37.2986 452.428 37.1119 453.282 37.1119C454.114 37.1119 454.85 37.2933 455.49 37.6559C456.13 38.0186 456.62 38.5199 456.962 39.1599C457.314 39.7893 457.49 40.5039 457.49 41.3039ZM455.986 40.9999C455.986 40.4453 455.863 39.9706 455.618 39.5759C455.372 39.1706 455.036 38.8666 454.61 38.6639C454.194 38.4506 453.73 38.3439 453.218 38.3439C452.482 38.3439 451.852 38.5786 451.33 39.0479C450.818 39.5173 450.524 40.1679 450.45 40.9999H455.986ZM467.213 46.1359C466.477 46.1359 465.816 46.0079 465.229 45.7519C464.653 45.4853 464.2 45.1226 463.869 44.6639C463.539 44.1946 463.368 43.6559 463.357 43.0479H464.909C464.963 43.5706 465.176 44.0133 465.549 44.3759C465.933 44.7279 466.488 44.9039 467.213 44.9039C467.907 44.9039 468.451 44.7333 468.845 44.3919C469.251 44.0399 469.453 43.5919 469.453 43.0479C469.453 42.6213 469.336 42.2746 469.101 42.0079C468.867 41.7413 468.573 41.5386 468.221 41.3999C467.869 41.2613 467.395 41.1119 466.797 40.9519C466.061 40.7599 465.469 40.5679 465.021 40.3759C464.584 40.1839 464.205 39.8853 463.885 39.4799C463.576 39.0639 463.421 38.5093 463.421 37.8159C463.421 37.2079 463.576 36.6693 463.885 36.1999C464.195 35.7306 464.627 35.3679 465.181 35.1119C465.747 34.8559 466.392 34.7279 467.117 34.7279C468.163 34.7279 469.016 34.9893 469.677 35.5119C470.349 36.0346 470.728 36.7279 470.813 37.5919H469.213C469.16 37.1653 468.936 36.7919 468.541 36.4719C468.147 36.1413 467.624 35.9759 466.973 35.9759C466.365 35.9759 465.869 36.1359 465.485 36.4559C465.101 36.7653 464.909 37.2026 464.909 37.7679C464.909 38.1733 465.021 38.5039 465.245 38.7599C465.48 39.0159 465.763 39.2133 466.093 39.3519C466.435 39.4799 466.909 39.6293 467.517 39.7999C468.253 40.0026 468.845 40.2053 469.293 40.4079C469.741 40.5999 470.125 40.9039 470.445 41.3199C470.765 41.7253 470.925 42.2799 470.925 42.9839C470.925 43.5279 470.781 44.0399 470.493 44.5199C470.205 44.9999 469.779 45.3893 469.213 45.6879C468.648 45.9866 467.981 46.1359 467.213 46.1359ZM481.068 41.3039C481.068 41.5813 481.052 41.8746 481.02 42.1839H474.012C474.065 43.0479 474.359 43.7253 474.892 44.2159C475.436 44.6959 476.092 44.9359 476.86 44.9359C477.489 44.9359 478.012 44.7919 478.428 44.5039C478.855 44.2053 479.153 43.8106 479.324 43.3199H480.892C480.657 44.1626 480.188 44.8506 479.484 45.3839C478.78 45.9066 477.905 46.1679 476.86 46.1679C476.028 46.1679 475.281 45.9813 474.62 45.6079C473.969 45.2346 473.457 44.7066 473.084 44.0239C472.711 43.3306 472.524 42.5306 472.524 41.6239C472.524 40.7173 472.705 39.9226 473.068 39.2399C473.431 38.5573 473.937 38.0346 474.588 37.6719C475.249 37.2986 476.007 37.1119 476.86 37.1119C477.692 37.1119 478.428 37.2933 479.068 37.6559C479.708 38.0186 480.199 38.5199 480.54 39.1599C480.892 39.7893 481.068 40.5039 481.068 41.3039ZM479.564 40.9999C479.564 40.4453 479.441 39.9706 479.196 39.5759C478.951 39.1706 478.615 38.8666 478.188 38.6639C477.772 38.4506 477.308 38.3439 476.796 38.3439C476.06 38.3439 475.431 38.5786 474.908 39.0479C474.396 39.5173 474.103 40.1679 474.028 40.9999H479.564ZM482.446 41.6079C482.446 40.7119 482.627 39.9279 482.99 39.2559C483.352 38.5733 483.848 38.0453 484.478 37.6719C485.118 37.2986 485.832 37.1119 486.622 37.1119C487.304 37.1119 487.939 37.2719 488.526 37.5919C489.112 37.9013 489.56 38.3119 489.87 38.8239V34.1839H491.342V46.0239H489.87V44.3759C489.582 44.8986 489.155 45.3306 488.59 45.6719C488.024 46.0026 487.363 46.1679 486.606 46.1679C485.827 46.1679 485.118 45.9759 484.478 45.5919C483.848 45.2079 483.352 44.6693 482.99 43.9759C482.627 43.2826 482.446 42.4933 482.446 41.6079ZM489.87 41.6239C489.87 40.9626 489.736 40.3866 489.47 39.8959C489.203 39.4053 488.84 39.0319 488.382 38.7759C487.934 38.5093 487.438 38.3759 486.894 38.3759C486.35 38.3759 485.854 38.5039 485.406 38.7599C484.958 39.0159 484.6 39.3893 484.334 39.8799C484.067 40.3706 483.934 40.9466 483.934 41.6079C483.934 42.2799 484.067 42.8666 484.334 43.3679C484.6 43.8586 484.958 44.2373 485.406 44.5039C485.854 44.7599 486.35 44.8879 486.894 44.8879C487.438 44.8879 487.934 44.7599 488.382 44.5039C488.84 44.2373 489.203 43.8586 489.47 43.3679C489.736 42.8666 489.87 42.2853 489.87 41.6239ZM493.258 41.6079C493.258 40.7119 493.44 39.9279 493.802 39.2559C494.165 38.5733 494.661 38.0453 495.29 37.6719C495.93 37.2986 496.64 37.1119 497.418 37.1119C498.186 37.1119 498.853 37.2773 499.418 37.6079C499.984 37.9386 500.405 38.3546 500.682 38.8559V37.2559H502.154V46.0239H500.682V44.3919C500.394 44.9039 499.962 45.3306 499.386 45.6719C498.821 46.0026 498.16 46.1679 497.402 46.1679C496.624 46.1679 495.92 45.9759 495.29 45.5919C494.661 45.2079 494.165 44.6693 493.802 43.9759C493.44 43.2826 493.258 42.4933 493.258 41.6079ZM500.682 41.6239C500.682 40.9626 500.549 40.3866 500.282 39.8959C500.016 39.4053 499.653 39.0319 499.194 38.7759C498.746 38.5093 498.25 38.3759 497.706 38.3759C497.162 38.3759 496.666 38.5039 496.218 38.7599C495.77 39.0159 495.413 39.3893 495.146 39.8799C494.88 40.3706 494.746 40.9466 494.746 41.6079C494.746 42.2799 494.88 42.8666 495.146 43.3679C495.413 43.8586 495.77 44.2373 496.218 44.5039C496.666 44.7599 497.162 44.8879 497.706 44.8879C498.25 44.8879 498.746 44.7599 499.194 44.5039C499.653 44.2373 500.016 43.8586 500.282 43.3679C500.549 42.8666 500.682 42.2853 500.682 41.6239ZM508.887 37.0959C509.953 37.0959 510.817 37.4213 511.479 38.0719C512.14 38.7119 512.471 39.6399 512.471 40.8559V46.0239H511.031V41.0639C511.031 40.1893 510.812 39.5226 510.375 39.0639C509.937 38.5946 509.34 38.3599 508.583 38.3599C507.815 38.3599 507.201 38.5999 506.743 39.0799C506.295 39.5599 506.071 40.2586 506.071 41.1759V46.0239H504.615V37.2559H506.071V38.5039C506.359 38.0559 506.748 37.7093 507.239 37.4639C507.74 37.2186 508.289 37.0959 508.887 37.0959ZM516.353 44.0079L514.561 48.3119H513.585L514.753 44.0079H516.353ZM525.823 46.1359C525.087 46.1359 524.425 46.0079 523.839 45.7519C523.263 45.4853 522.809 45.1226 522.479 44.6639C522.148 44.1946 521.977 43.6559 521.967 43.0479H523.519C523.572 43.5706 523.785 44.0133 524.159 44.3759C524.543 44.7279 525.097 44.9039 525.823 44.9039C526.516 44.9039 527.06 44.7333 527.455 44.3919C527.86 44.0399 528.063 43.5919 528.063 43.0479C528.063 42.6213 527.945 42.2746 527.711 42.0079C527.476 41.7413 527.183 41.5386 526.831 41.3999C526.479 41.2613 526.004 41.1119 525.407 40.9519C524.671 40.7599 524.079 40.5679 523.631 40.3759C523.193 40.1839 522.815 39.8853 522.495 39.4799C522.185 39.0639 522.031 38.5093 522.031 37.8159C522.031 37.2079 522.185 36.6693 522.495 36.1999C522.804 35.7306 523.236 35.3679 523.791 35.1119C524.356 34.8559 525.001 34.7279 525.727 34.7279C526.772 34.7279 527.625 34.9893 528.287 35.5119C528.959 36.0346 529.337 36.7279 529.423 37.5919H527.823C527.769 37.1653 527.545 36.7919 527.151 36.4719C526.756 36.1413 526.233 35.9759 525.583 35.9759C524.975 35.9759 524.479 36.1359 524.095 36.4559C523.711 36.7653 523.519 37.2026 523.519 37.7679C523.519 38.1733 523.631 38.5039 523.855 38.7599C524.089 39.0159 524.372 39.2133 524.703 39.3519C525.044 39.4799 525.519 39.6293 526.127 39.7999C526.863 40.0026 527.455 40.2053 527.903 40.4079C528.351 40.5999 528.735 40.9039 529.055 41.3199C529.375 41.7253 529.535 42.2799 529.535 42.9839C529.535 43.5279 529.391 44.0399 529.103 44.5199C528.815 44.9999 528.388 45.3893 527.823 45.6879C527.257 45.9866 526.591 46.1359 525.823 46.1359ZM539.453 37.2559V46.0239H537.997V44.7279C537.72 45.1759 537.331 45.5279 536.829 45.7839C536.339 46.0293 535.795 46.1519 535.197 46.1519C534.515 46.1519 533.901 46.0133 533.357 45.7359C532.813 45.4479 532.381 45.0213 532.061 44.4559C531.752 43.8906 531.597 43.2026 531.597 42.3919V37.2559H533.037V42.1999C533.037 43.0639 533.256 43.7306 533.693 44.1999C534.131 44.6586 534.728 44.8879 535.485 44.8879C536.264 44.8879 536.877 44.6479 537.325 44.1679C537.773 43.6879 537.997 42.9893 537.997 42.0719V37.2559H539.453ZM545.176 44.6799L547.896 37.2559H549.448L546.008 46.0239H544.312L540.872 37.2559H542.44L545.176 44.6799ZM552.384 44.0079L550.592 48.3119H549.616L550.784 44.0079H552.384ZM569.63 34.9519V46.0239H568.174V37.7679L564.494 46.0239H563.47L559.774 37.7519V46.0239H558.318V34.9519H559.886L563.982 44.1039L568.078 34.9519H569.63ZM579.875 37.2559V46.0239H578.419V44.7279C578.142 45.1759 577.753 45.5279 577.251 45.7839C576.761 46.0293 576.217 46.1519 575.619 46.1519C574.937 46.1519 574.323 46.0133 573.779 45.7359C573.235 45.4479 572.803 45.0213 572.483 44.4559C572.174 43.8906 572.019 43.2026 572.019 42.3919V37.2559H573.459V42.1999C573.459 43.0639 573.678 43.7306 574.115 44.1999C574.553 44.6586 575.15 44.8879 575.907 44.8879C576.686 44.8879 577.299 44.6479 577.747 44.1679C578.195 43.6879 578.419 42.9893 578.419 42.0719V37.2559H579.875ZM585.598 44.6799L588.318 37.2559H589.87L586.43 46.0239H584.734L581.294 37.2559H582.862L585.598 44.6799ZM592.806 44.0079L591.014 48.3119H590.038L591.206 44.0079H592.806ZM606.196 38.1359C606.196 39.0639 605.876 39.8373 605.236 40.4559C604.606 41.0639 603.641 41.3679 602.34 41.3679H600.196V46.0239H598.74V34.8719H602.34C603.598 34.8719 604.553 35.1759 605.204 35.7839C605.865 36.3919 606.196 37.1759 606.196 38.1359ZM602.34 40.1679C603.15 40.1679 603.748 39.9919 604.132 39.6399C604.516 39.2879 604.708 38.7866 604.708 38.1359C604.708 36.7599 603.918 36.0719 602.34 36.0719H600.196V40.1679H602.34ZM609.461 38.6799C609.717 38.1786 610.08 37.7893 610.549 37.5119C611.029 37.2346 611.611 37.0959 612.293 37.0959V38.5999H611.909C610.277 38.5999 609.461 39.4853 609.461 41.2559V46.0239H608.005V37.2559H609.461V38.6799ZM621.974 41.3039C621.974 41.5813 621.958 41.8746 621.926 42.1839H614.918C614.972 43.0479 615.265 43.7253 615.798 44.2159C616.342 44.6959 616.998 44.9359 617.766 44.9359C618.396 44.9359 618.918 44.7919 619.334 44.5039C619.761 44.2053 620.06 43.8106 620.23 43.3199H621.798C621.564 44.1626 621.094 44.8506 620.39 45.3839C619.686 45.9066 618.812 46.1679 617.766 46.1679C616.934 46.1679 616.188 45.9813 615.526 45.6079C614.876 45.2346 614.364 44.7066 613.99 44.0239C613.617 43.3306 613.43 42.5306 613.43 41.6239C613.43 40.7173 613.612 39.9226 613.974 39.2399C614.337 38.5573 614.844 38.0346 615.494 37.6719C616.156 37.2986 616.913 37.1119 617.766 37.1119C618.598 37.1119 619.334 37.2933 619.974 37.6559C620.614 38.0186 621.105 38.5199 621.446 39.1599C621.798 39.7893 621.974 40.5039 621.974 41.3039ZM620.47 40.9999C620.47 40.4453 620.348 39.9706 620.102 39.5759C619.857 39.1706 619.521 38.8666 619.094 38.6639C618.678 38.4506 618.214 38.3439 617.702 38.3439C616.966 38.3439 616.337 38.5786 615.814 39.0479C615.302 39.5173 615.009 40.1679 614.934 40.9999H620.47ZM634.44 37.0959C635.123 37.0959 635.731 37.2399 636.264 37.5279C636.797 37.8053 637.219 38.2266 637.528 38.7919C637.837 39.3573 637.992 40.0453 637.992 40.8559V46.0239H636.552V41.0639C636.552 40.1893 636.333 39.5226 635.896 39.0639C635.469 38.5946 634.888 38.3599 634.152 38.3599C633.395 38.3599 632.792 38.6053 632.344 39.0959C631.896 39.5759 631.672 40.2746 631.672 41.1919V46.0239H630.232V41.0639C630.232 40.1893 630.013 39.5226 629.576 39.0639C629.149 38.5946 628.568 38.3599 627.832 38.3599C627.075 38.3599 626.472 38.6053 626.024 39.0959C625.576 39.5759 625.352 40.2746 625.352 41.1919V46.0239H623.896V37.2559H625.352V38.5199C625.64 38.0613 626.024 37.7093 626.504 37.4639C626.995 37.2186 627.533 37.0959 628.12 37.0959C628.856 37.0959 629.507 37.2613 630.072 37.5919C630.637 37.9226 631.059 38.4079 631.336 39.0479C631.581 38.4293 631.987 37.9493 632.552 37.6079C633.117 37.2666 633.747 37.0959 634.44 37.0959ZM641.132 35.8319C640.855 35.8319 640.62 35.7359 640.428 35.5439C640.236 35.3519 640.14 35.1173 640.14 34.8399C640.14 34.5626 640.236 34.3279 640.428 34.1359C640.62 33.9439 640.855 33.8479 641.132 33.8479C641.399 33.8479 641.623 33.9439 641.804 34.1359C641.996 34.3279 642.092 34.5626 642.092 34.8399C642.092 35.1173 641.996 35.3519 641.804 35.5439C641.623 35.7359 641.399 35.8319 641.132 35.8319ZM641.836 37.2559V46.0239H640.38V37.2559H641.836ZM652.094 37.2559V46.0239H650.638V44.7279C650.361 45.1759 649.971 45.5279 649.47 45.7839C648.979 46.0293 648.435 46.1519 647.838 46.1519C647.155 46.1519 646.542 46.0133 645.998 45.7359C645.454 45.4479 645.022 45.0213 644.702 44.4559C644.393 43.8906 644.238 43.2026 644.238 42.3919V37.2559H645.678V42.1999C645.678 43.0639 645.897 43.7306 646.334 44.1999C646.771 44.6586 647.369 44.8879 648.126 44.8879C648.905 44.8879 649.518 44.6479 649.966 44.1679C650.414 43.6879 650.638 42.9893 650.638 42.0719V37.2559H652.094ZM665.096 37.0959C665.779 37.0959 666.387 37.2399 666.92 37.5279C667.454 37.8053 667.875 38.2266 668.184 38.7919C668.494 39.3573 668.648 40.0453 668.648 40.8559V46.0239H667.208V41.0639C667.208 40.1893 666.99 39.5226 666.552 39.0639C666.126 38.5946 665.544 38.3599 664.808 38.3599C664.051 38.3599 663.448 38.6053 663 39.0959C662.552 39.5759 662.328 40.2746 662.328 41.1919V46.0239H660.888V41.0639C660.888 40.1893 660.67 39.5226 660.232 39.0639C659.806 38.5946 659.224 38.3599 658.488 38.3599C657.731 38.3599 657.128 38.6053 656.68 39.0959C656.232 39.5759 656.008 40.2746 656.008 41.1919V46.0239H654.552V37.2559H656.008V38.5199C656.296 38.0613 656.68 37.7093 657.16 37.4639C657.651 37.2186 658.19 37.0959 658.776 37.0959C659.512 37.0959 660.163 37.2613 660.728 37.5919C661.294 37.9226 661.715 38.4079 661.992 39.0479C662.238 38.4293 662.643 37.9493 663.208 37.6079C663.774 37.2666 664.403 37.0959 665.096 37.0959ZM678.838 46.1359C678.102 46.1359 677.441 46.0079 676.854 45.7519C676.278 45.4853 675.825 45.1226 675.494 44.6639C675.164 44.1946 674.993 43.6559 674.982 43.0479H676.534C676.588 43.5706 676.801 44.0133 677.174 44.3759C677.558 44.7279 678.113 44.9039 678.838 44.9039C679.532 44.9039 680.076 44.7333 680.47 44.3919C680.876 44.0399 681.078 43.5919 681.078 43.0479C681.078 42.6213 680.961 42.2746 680.726 42.0079C680.492 41.7413 680.198 41.5386 679.846 41.3999C679.494 41.2613 679.02 41.1119 678.422 40.9519C677.686 40.7599 677.094 40.5679 676.646 40.3759C676.209 40.1839 675.83 39.8853 675.51 39.4799C675.201 39.0639 675.046 38.5093 675.046 37.8159C675.046 37.2079 675.201 36.6693 675.51 36.1999C675.82 35.7306 676.252 35.3679 676.806 35.1119C677.372 34.8559 678.017 34.7279 678.742 34.7279C679.788 34.7279 680.641 34.9893 681.302 35.5119C681.974 36.0346 682.353 36.7279 682.438 37.5919H680.838C680.785 37.1653 680.561 36.7919 680.166 36.4719C679.772 36.1413 679.249 35.9759 678.598 35.9759C677.99 35.9759 677.494 36.1359 677.11 36.4559C676.726 36.7653 676.534 37.2026 676.534 37.7679C676.534 38.1733 676.646 38.5039 676.87 38.7599C677.105 39.0159 677.388 39.2133 677.718 39.3519C678.06 39.4799 678.534 39.6293 679.142 39.7999C679.878 40.0026 680.47 40.2053 680.918 40.4079C681.366 40.5999 681.75 40.9039 682.07 41.3199C682.39 41.7253 682.55 42.2799 682.55 42.9839C682.55 43.5279 682.406 44.0399 682.118 44.5199C681.83 44.9999 681.404 45.3893 680.838 45.6879C680.273 45.9866 679.606 46.1359 678.838 46.1359ZM692.693 41.3039C692.693 41.5813 692.677 41.8746 692.645 42.1839H685.637C685.69 43.0479 685.984 43.7253 686.517 44.2159C687.061 44.6959 687.717 44.9359 688.485 44.9359C689.114 44.9359 689.637 44.7919 690.053 44.5039C690.48 44.2053 690.778 43.8106 690.949 43.3199H692.517C692.282 44.1626 691.813 44.8506 691.109 45.3839C690.405 45.9066 689.53 46.1679 688.485 46.1679C687.653 46.1679 686.906 45.9813 686.245 45.6079C685.594 45.2346 685.082 44.7066 684.709 44.0239C684.336 43.3306 684.149 42.5306 684.149 41.6239C684.149 40.7173 684.33 39.9226 684.693 39.2399C685.056 38.5573 685.562 38.0346 686.213 37.6719C686.874 37.2986 687.632 37.1119 688.485 37.1119C689.317 37.1119 690.053 37.2933 690.693 37.6559C691.333 38.0186 691.824 38.5199 692.165 39.1599C692.517 39.7893 692.693 40.5039 692.693 41.3039ZM691.189 40.9999C691.189 40.4453 691.066 39.9706 690.821 39.5759C690.576 39.1706 690.24 38.8666 689.813 38.6639C689.397 38.4506 688.933 38.3439 688.421 38.3439C687.685 38.3439 687.056 38.5786 686.533 39.0479C686.021 39.5173 685.728 40.1679 685.653 40.9999H691.189ZM694.071 41.6079C694.071 40.7119 694.252 39.9279 694.615 39.2559C694.977 38.5733 695.473 38.0453 696.103 37.6719C696.743 37.2986 697.457 37.1119 698.247 37.1119C698.929 37.1119 699.564 37.2719 700.151 37.5919C700.737 37.9013 701.185 38.3119 701.495 38.8239V34.1839H702.967V46.0239H701.495V44.3759C701.207 44.8986 700.78 45.3306 700.215 45.6719C699.649 46.0026 698.988 46.1679 698.231 46.1679C697.452 46.1679 696.743 45.9759 696.103 45.5919C695.473 45.2079 694.977 44.6693 694.615 43.9759C694.252 43.2826 694.071 42.4933 694.071 41.6079ZM701.495 41.6239C701.495 40.9626 701.361 40.3866 701.095 39.8959C700.828 39.4053 700.465 39.0319 700.007 38.7759C699.559 38.5093 699.063 38.3759 698.519 38.3759C697.975 38.3759 697.479 38.5039 697.031 38.7599C696.583 39.0159 696.225 39.3893 695.959 39.8799C695.692 40.3706 695.559 40.9466 695.559 41.6079C695.559 42.2799 695.692 42.8666 695.959 43.3679C696.225 43.8586 696.583 44.2373 697.031 44.5039C697.479 44.7599 697.975 44.8879 698.519 44.8879C699.063 44.8879 699.559 44.7599 700.007 44.5039C700.465 44.2373 700.828 43.8586 701.095 43.3679C701.361 42.8666 701.495 42.2853 701.495 41.6239ZM704.883 41.6079C704.883 40.7119 705.065 39.9279 705.427 39.2559C705.79 38.5733 706.286 38.0453 706.915 37.6719C707.555 37.2986 708.265 37.1119 709.043 37.1119C709.811 37.1119 710.478 37.2773 711.043 37.6079C711.609 37.9386 712.03 38.3546 712.307 38.8559V37.2559H713.779V46.0239H712.307V44.3919C712.019 44.9039 711.587 45.3306 711.011 45.6719C710.446 46.0026 709.785 46.1679 709.027 46.1679C708.249 46.1679 707.545 45.9759 706.915 45.5919C706.286 45.2079 705.79 44.6693 705.427 43.9759C705.065 43.2826 704.883 42.4933 704.883 41.6079ZM712.307 41.6239C712.307 40.9626 712.174 40.3866 711.907 39.8959C711.641 39.4053 711.278 39.0319 710.819 38.7759C710.371 38.5093 709.875 38.3759 709.331 38.3759C708.787 38.3759 708.291 38.5039 707.843 38.7599C707.395 39.0159 707.038 39.3893 706.771 39.8799C706.505 40.3706 706.371 40.9466 706.371 41.6079C706.371 42.2799 706.505 42.8666 706.771 43.3679C707.038 43.8586 707.395 44.2373 707.843 44.5039C708.291 44.7599 708.787 44.8879 709.331 44.8879C709.875 44.8879 710.371 44.7599 710.819 44.5039C711.278 44.2373 711.641 43.8586 711.907 43.3679C712.174 42.8666 712.307 42.2853 712.307 41.6239ZM720.512 37.0959C721.578 37.0959 722.442 37.4213 723.104 38.0719C723.765 38.7119 724.096 39.6399 724.096 40.8559V46.0239H722.656V41.0639C722.656 40.1893 722.437 39.5226 722 39.0639C721.562 38.5946 720.965 38.3599 720.208 38.3599C719.44 38.3599 718.826 38.5999 718.368 39.0799C717.92 39.5599 717.696 40.2586 717.696 41.1759V46.0239H716.24V37.2559H717.696V38.5039C717.984 38.0559 718.373 37.7093 718.864 37.4639C719.365 37.2186 719.914 37.0959 720.512 37.0959ZM727.978 44.0079L726.186 48.3119H725.21L726.378 44.0079H727.978ZM740.776 34.8719V36.0559H737.736V46.0239H736.28V36.0559H733.224V34.8719H740.776ZM742.024 41.6079C742.024 40.7119 742.205 39.9279 742.568 39.2559C742.931 38.5733 743.427 38.0453 744.056 37.6719C744.696 37.2986 745.405 37.1119 746.184 37.1119C746.952 37.1119 747.619 37.2773 748.184 37.6079C748.749 37.9386 749.171 38.3546 749.448 38.8559V37.2559H750.92V46.0239H749.448V44.3919C749.16 44.9039 748.728 45.3306 748.152 45.6719C747.587 46.0026 746.925 46.1679 746.168 46.1679C745.389 46.1679 744.685 45.9759 744.056 45.5919C743.427 45.2079 742.931 44.6693 742.568 43.9759C742.205 43.2826 742.024 42.4933 742.024 41.6079ZM749.448 41.6239C749.448 40.9626 749.315 40.3866 749.048 39.8959C748.781 39.4053 748.419 39.0319 747.96 38.7759C747.512 38.5093 747.016 38.3759 746.472 38.3759C745.928 38.3759 745.432 38.5039 744.984 38.7599C744.536 39.0159 744.179 39.3893 743.912 39.8799C743.645 40.3706 743.512 40.9466 743.512 41.6079C743.512 42.2799 743.645 42.8666 743.912 43.3679C744.179 43.8586 744.536 44.2373 744.984 44.5039C745.432 44.7599 745.928 44.8879 746.472 44.8879C747.016 44.8879 747.512 44.7599 747.96 44.5039C748.419 44.2373 748.781 43.8586 749.048 43.3679C749.315 42.8666 749.448 42.2853 749.448 41.6239ZM763.924 37.0959C764.607 37.0959 765.215 37.2399 765.748 37.5279C766.282 37.8053 766.703 38.2266 767.012 38.7919C767.322 39.3573 767.476 40.0453 767.476 40.8559V46.0239H766.036V41.0639C766.036 40.1893 765.818 39.5226 765.38 39.0639C764.954 38.5946 764.372 38.3599 763.636 38.3599C762.879 38.3599 762.276 38.6053 761.828 39.0959C761.38 39.5759 761.156 40.2746 761.156 41.1919V46.0239H759.716V41.0639C759.716 40.1893 759.498 39.5226 759.06 39.0639C758.634 38.5946 758.052 38.3599 757.316 38.3599C756.559 38.3599 755.956 38.6053 755.508 39.0959C755.06 39.5759 754.836 40.2746 754.836 41.1919V46.0239H753.38V37.2559H754.836V38.5199C755.124 38.0613 755.508 37.7093 755.988 37.4639C756.479 37.2186 757.018 37.0959 757.604 37.0959C758.34 37.0959 758.991 37.2613 759.556 37.5919C760.122 37.9226 760.543 38.4079 760.82 39.0479C761.066 38.4293 761.471 37.9493 762.036 37.6079C762.602 37.2666 763.231 37.0959 763.924 37.0959ZM771.321 38.8719C771.609 38.3706 772.035 37.9546 772.601 37.6239C773.177 37.2826 773.843 37.1119 774.601 37.1119C775.379 37.1119 776.083 37.2986 776.713 37.6719C777.353 38.0453 777.854 38.5733 778.217 39.2559C778.579 39.9279 778.761 40.7119 778.761 41.6079C778.761 42.4933 778.579 43.2826 778.217 43.9759C777.854 44.6693 777.353 45.2079 776.713 45.5919C776.083 45.9759 775.379 46.1679 774.601 46.1679C773.854 46.1679 773.193 46.0026 772.617 45.6719C772.051 45.3306 771.619 44.9093 771.321 44.4079V50.1839H769.865V37.2559H771.321V38.8719ZM777.273 41.6079C777.273 40.9466 777.139 40.3706 776.873 39.8799C776.606 39.3893 776.243 39.0159 775.785 38.7599C775.337 38.5039 774.841 38.3759 774.297 38.3759C773.763 38.3759 773.267 38.5093 772.809 38.7759C772.361 39.0319 771.998 39.4106 771.721 39.9119C771.454 40.4026 771.321 40.9733 771.321 41.6239C771.321 42.2853 771.454 42.8666 771.721 43.3679C771.998 43.8586 772.361 44.2373 772.809 44.5039C773.267 44.7599 773.763 44.8879 774.297 44.8879C774.841 44.8879 775.337 44.7599 775.785 44.5039C776.243 44.2373 776.606 43.8586 776.873 43.3679C777.139 42.8666 777.273 42.2799 777.273 41.6079ZM784.501 46.1679C783.68 46.1679 782.933 45.9813 782.261 45.6079C781.6 45.2346 781.077 44.7066 780.693 44.0239C780.32 43.3306 780.133 42.5306 780.133 41.6239C780.133 40.7279 780.325 39.9386 780.709 39.2559C781.104 38.5626 781.637 38.0346 782.309 37.6719C782.981 37.2986 783.733 37.1119 784.565 37.1119C785.397 37.1119 786.149 37.2986 786.821 37.6719C787.493 38.0346 788.021 38.5573 788.405 39.2399C788.8 39.9226 788.997 40.7173 788.997 41.6239C788.997 42.5306 788.795 43.3306 788.389 44.0239C787.995 44.7066 787.456 45.2346 786.773 45.6079C786.091 45.9813 785.333 46.1679 784.501 46.1679ZM784.501 44.8879C785.024 44.8879 785.515 44.7653 785.973 44.5199C786.432 44.2746 786.8 43.9066 787.077 43.4159C787.365 42.9253 787.509 42.3279 787.509 41.6239C787.509 40.9199 787.371 40.3226 787.093 39.8319C786.816 39.3413 786.453 38.9786 786.005 38.7439C785.557 38.4986 785.072 38.3759 784.549 38.3759C784.016 38.3759 783.525 38.4986 783.077 38.7439C782.64 38.9786 782.288 39.3413 782.021 39.8319C781.755 40.3226 781.621 40.9199 781.621 41.6239C781.621 42.3386 781.749 42.9413 782.005 43.4319C782.272 43.9226 782.624 44.2906 783.061 44.5359C783.499 44.7706 783.979 44.8879 784.501 44.8879ZM91.5569 58.8719V60.0559H88.5169V70.0239H87.0609V60.0559H84.0049V58.8719H91.5569ZM94.8052 62.6799C95.0612 62.1786 95.4239 61.7893 95.8932 61.5119C96.3732 61.2346 96.9545 61.0959 97.6372 61.0959V62.5999H97.2532C95.6212 62.5999 94.8052 63.4853 94.8052 65.2559V70.0239H93.3492V61.2559H94.8052V62.6799ZM98.7739 65.6079C98.7739 64.7119 98.9553 63.9279 99.3179 63.2559C99.6806 62.5733 100.177 62.0453 100.806 61.6719C101.446 61.2986 102.155 61.1119 102.934 61.1119C103.702 61.1119 104.369 61.2773 104.934 61.6079C105.499 61.9386 105.921 62.3546 106.198 62.8559V61.2559H107.67V70.0239H106.198V68.3919C105.91 68.9039 105.478 69.3306 104.902 69.6719C104.337 70.0026 103.675 70.1679 102.918 70.1679C102.139 70.1679 101.435 69.9759 100.806 69.5919C100.177 69.2079 99.6806 68.6693 99.3179 67.9759C98.9553 67.2826 98.7739 66.4933 98.7739 65.6079ZM106.198 65.6239C106.198 64.9626 106.065 64.3866 105.798 63.8959C105.531 63.4053 105.169 63.0319 104.71 62.7759C104.262 62.5093 103.766 62.3759 103.222 62.3759C102.678 62.3759 102.182 62.5039 101.734 62.7599C101.286 63.0159 100.929 63.3893 100.662 63.8799C100.395 64.3706 100.262 64.9466 100.262 65.6079C100.262 66.2799 100.395 66.8666 100.662 67.3679C100.929 67.8586 101.286 68.2373 101.734 68.5039C102.182 68.7599 102.678 68.8879 103.222 68.8879C103.766 68.8879 104.262 68.7599 104.71 68.5039C105.169 68.2373 105.531 67.8586 105.798 67.3679C106.065 66.8666 106.198 66.2853 106.198 65.6239ZM113.394 68.6799L116.114 61.2559H117.666L114.226 70.0239H112.53L109.09 61.2559H110.658L113.394 68.6799ZM127.099 65.3039C127.099 65.5813 127.083 65.8746 127.051 66.1839H120.043C120.097 67.0479 120.39 67.7253 120.923 68.2159C121.467 68.6959 122.123 68.9359 122.891 68.9359C123.521 68.9359 124.043 68.7919 124.459 68.5039C124.886 68.2053 125.185 67.8106 125.355 67.3199H126.923C126.689 68.1626 126.219 68.8506 125.515 69.3839C124.811 69.9066 123.937 70.1679 122.891 70.1679C122.059 70.1679 121.313 69.9813 120.651 69.6079C120.001 69.2346 119.489 68.7066 119.115 68.0239C118.742 67.3306 118.555 66.5306 118.555 65.6239C118.555 64.7173 118.737 63.9226 119.099 63.2399C119.462 62.5573 119.969 62.0346 120.619 61.6719C121.281 61.2986 122.038 61.1119 122.891 61.1119C123.723 61.1119 124.459 61.2933 125.099 61.6559C125.739 62.0186 126.23 62.5199 126.571 63.1599C126.923 63.7893 127.099 64.5039 127.099 65.3039ZM125.595 64.9999C125.595 64.4453 125.473 63.9706 125.227 63.5759C124.982 63.1706 124.646 62.8666 124.219 62.6639C123.803 62.4506 123.339 62.3439 122.827 62.3439C122.091 62.3439 121.462 62.5786 120.939 63.0479C120.427 63.5173 120.134 64.1679 120.059 64.9999H125.595ZM130.477 58.1839V70.0239H129.021V58.1839H130.477ZM134.415 58.1839V70.0239H132.959V58.1839H134.415ZM144.896 65.3039C144.896 65.5813 144.88 65.8746 144.848 66.1839H137.84C137.893 67.0479 138.187 67.7253 138.72 68.2159C139.264 68.6959 139.92 68.9359 140.688 68.9359C141.317 68.9359 141.84 68.7919 142.256 68.5039C142.683 68.2053 142.981 67.8106 143.152 67.3199H144.72C144.485 68.1626 144.016 68.8506 143.312 69.3839C142.608 69.9066 141.733 70.1679 140.688 70.1679C139.856 70.1679 139.109 69.9813 138.448 69.6079C137.797 69.2346 137.285 68.7066 136.912 68.0239C136.539 67.3306 136.352 66.5306 136.352 65.6239C136.352 64.7173 136.533 63.9226 136.896 63.2399C137.259 62.5573 137.765 62.0346 138.416 61.6719C139.077 61.2986 139.835 61.1119 140.688 61.1119C141.52 61.1119 142.256 61.2933 142.896 61.6559C143.536 62.0186 144.027 62.5199 144.368 63.1599C144.72 63.7893 144.896 64.5039 144.896 65.3039ZM143.392 64.9999C143.392 64.4453 143.269 63.9706 143.024 63.5759C142.779 63.1706 142.443 62.8666 142.016 62.6639C141.6 62.4506 141.136 62.3439 140.624 62.3439C139.888 62.3439 139.259 62.5786 138.736 63.0479C138.224 63.5173 137.931 64.1679 137.856 64.9999H143.392ZM148.274 62.6799C148.53 62.1786 148.893 61.7893 149.362 61.5119C149.842 61.2346 150.423 61.0959 151.106 61.0959V62.5999H150.722C149.09 62.5999 148.274 63.4853 148.274 65.2559V70.0239H146.818V61.2559H148.274V62.6799ZM158.508 60.0559V63.7839H162.572V64.9839H158.508V68.8239H163.052V70.0239H157.052V58.8559H163.052V60.0559H158.508ZM167.031 62.4559V67.6239C167.031 68.0506 167.122 68.3546 167.303 68.5359C167.485 68.7066 167.799 68.7919 168.247 68.7919H169.319V70.0239H168.007C167.197 70.0239 166.589 69.8373 166.183 69.4639C165.778 69.0906 165.575 68.4773 165.575 67.6239V62.4559H164.439V61.2559H165.575V59.0479H167.031V61.2559H169.319V62.4559H167.031ZM170.54 65.6239C170.54 64.7173 170.721 63.9279 171.084 63.2559C171.446 62.5733 171.948 62.0453 172.588 61.6719C173.238 61.2986 173.98 61.1119 174.812 61.1119C175.889 61.1119 176.774 61.3733 177.468 61.8959C178.172 62.4186 178.636 63.1439 178.86 64.0719H177.292C177.142 63.5386 176.849 63.1173 176.412 62.8079C175.985 62.4986 175.452 62.3439 174.812 62.3439C173.98 62.3439 173.308 62.6319 172.796 63.2079C172.284 63.7733 172.028 64.5786 172.028 65.6239C172.028 66.6799 172.284 67.4959 172.796 68.0719C173.308 68.6479 173.98 68.9359 174.812 68.9359C175.452 68.9359 175.985 68.7866 176.412 68.4879C176.838 68.1893 177.132 67.7626 177.292 67.2079H178.86C178.625 68.1039 178.156 68.8239 177.452 69.3679C176.748 69.9013 175.868 70.1679 174.812 70.1679C173.98 70.1679 173.238 69.9813 172.588 69.6079C171.948 69.2346 171.446 68.7066 171.084 68.0239C170.721 67.3413 170.54 66.5413 170.54 65.6239ZM191.66 67.5439H186.796L185.9 70.0239H184.364L188.396 58.9359H190.076L194.092 70.0239H192.556L191.66 67.5439ZM191.244 66.3599L189.228 60.7279L187.212 66.3599H191.244ZM198.953 70.1679C198.281 70.1679 197.679 70.0559 197.145 69.8319C196.612 69.5973 196.191 69.2773 195.881 68.8719C195.572 68.4559 195.401 67.9813 195.369 67.4479H196.873C196.916 67.8853 197.119 68.2426 197.481 68.5199C197.855 68.7973 198.34 68.9359 198.937 68.9359C199.492 68.9359 199.929 68.8133 200.249 68.5679C200.569 68.3226 200.729 68.0133 200.729 67.6399C200.729 67.2559 200.559 66.9733 200.217 66.7919C199.876 66.5999 199.348 66.4133 198.633 66.2319C197.983 66.0613 197.449 65.8906 197.033 65.7199C196.628 65.5386 196.276 65.2773 195.977 64.9359C195.689 64.5839 195.545 64.1253 195.545 63.5599C195.545 63.1119 195.679 62.7013 195.945 62.3279C196.212 61.9546 196.591 61.6613 197.081 61.4479C197.572 61.2239 198.132 61.1119 198.761 61.1119C199.732 61.1119 200.516 61.3573 201.113 61.8479C201.711 62.3386 202.031 63.0106 202.073 63.8639H200.617C200.585 63.4053 200.399 63.0373 200.057 62.7599C199.727 62.4826 199.279 62.3439 198.713 62.3439C198.191 62.3439 197.775 62.4559 197.465 62.6799C197.156 62.9039 197.001 63.1973 197.001 63.5599C197.001 63.8479 197.092 64.0879 197.273 64.2799C197.465 64.4613 197.7 64.6106 197.977 64.7279C198.265 64.8346 198.66 64.9573 199.161 65.0959C199.791 65.2666 200.303 65.4373 200.697 65.6079C201.092 65.7679 201.428 66.0133 201.705 66.3439C201.993 66.6746 202.143 67.1066 202.153 67.6399C202.153 68.1199 202.02 68.5519 201.753 68.9359C201.487 69.3199 201.108 69.6239 200.617 69.8479C200.137 70.0613 199.583 70.1679 198.953 70.1679ZM215.93 62.1359C215.93 63.0639 215.61 63.8373 214.97 64.4559C214.341 65.0639 213.376 65.3679 212.074 65.3679H209.93V70.0239H208.474V58.8719H212.074C213.333 58.8719 214.288 59.1759 214.938 59.7839C215.6 60.3919 215.93 61.1759 215.93 62.1359ZM212.074 64.1679C212.885 64.1679 213.482 63.9919 213.866 63.6399C214.25 63.2879 214.442 62.7866 214.442 62.1359C214.442 60.7599 213.653 60.0719 212.074 60.0719H209.93V64.1679H212.074ZM225.74 65.3039C225.74 65.5813 225.724 65.8746 225.692 66.1839H218.684C218.737 67.0479 219.03 67.7253 219.564 68.2159C220.108 68.6959 220.764 68.9359 221.532 68.9359C222.161 68.9359 222.684 68.7919 223.1 68.5039C223.526 68.2053 223.825 67.8106 223.996 67.3199H225.564C225.329 68.1626 224.86 68.8506 224.156 69.3839C223.452 69.9066 222.577 70.1679 221.532 70.1679C220.7 70.1679 219.953 69.9813 219.292 69.6079C218.641 69.2346 218.129 68.7066 217.756 68.0239C217.382 67.3306 217.196 66.5306 217.196 65.6239C217.196 64.7173 217.377 63.9226 217.74 63.2399C218.102 62.5573 218.609 62.0346 219.26 61.6719C219.921 61.2986 220.678 61.1119 221.532 61.1119C222.364 61.1119 223.1 61.2933 223.74 61.6559C224.38 62.0186 224.87 62.5199 225.212 63.1599C225.564 63.7893 225.74 64.5039 225.74 65.3039ZM224.236 64.9999C224.236 64.4453 224.113 63.9706 223.868 63.5759C223.622 63.1706 223.286 62.8666 222.86 62.6639C222.444 62.4506 221.98 62.3439 221.468 62.3439C220.732 62.3439 220.102 62.5786 219.58 63.0479C219.068 63.5173 218.774 64.1679 218.7 64.9999H224.236ZM229.118 62.6799C229.374 62.1786 229.736 61.7893 230.206 61.5119C230.686 61.2346 231.267 61.0959 231.95 61.0959V62.5999H231.566C229.934 62.5999 229.118 63.4853 229.118 65.2559V70.0239H227.662V61.2559H229.118V62.6799ZM239.32 58.8719V65.9279C239.32 66.9199 239.56 67.6559 240.04 68.1359C240.531 68.6159 241.208 68.8559 242.072 68.8559C242.925 68.8559 243.592 68.6159 244.072 68.1359C244.563 67.6559 244.808 66.9199 244.808 65.9279V58.8719H246.264V65.9119C246.264 66.8399 246.077 67.6239 245.704 68.2639C245.331 68.8933 244.824 69.3626 244.184 69.6719C243.555 69.9813 242.845 70.1359 242.056 70.1359C241.267 70.1359 240.552 69.9813 239.912 69.6719C239.283 69.3626 238.781 68.8933 238.408 68.2639C238.045 67.6239 237.864 66.8399 237.864 65.9119V58.8719H239.32ZM250.149 62.6799C250.405 62.1786 250.768 61.7893 251.237 61.5119C251.717 61.2346 252.298 61.0959 252.981 61.0959V62.5999H252.597C250.965 62.5999 250.149 63.4853 250.149 65.2559V70.0239H248.693V61.2559H250.149V62.6799ZM264.799 70.0239L262.143 65.4639H260.383V70.0239H258.927V58.8719H262.527C263.37 58.8719 264.079 59.0159 264.655 59.3039C265.242 59.5919 265.679 59.9813 265.967 60.4719C266.255 60.9626 266.399 61.5226 266.399 62.1519C266.399 62.9199 266.175 63.5973 265.727 64.1839C265.29 64.7706 264.629 65.1599 263.743 65.3519L266.543 70.0239H264.799ZM260.383 64.2959H262.527C263.317 64.2959 263.909 64.1039 264.303 63.7199C264.698 63.3253 264.895 62.8026 264.895 62.1519C264.895 61.4906 264.698 60.9786 264.303 60.6159C263.919 60.2533 263.327 60.0719 262.527 60.0719H260.383V64.2959ZM276.662 65.3039C276.662 65.5813 276.646 65.8746 276.614 66.1839H269.606C269.659 67.0479 269.952 67.7253 270.486 68.2159C271.03 68.6959 271.686 68.9359 272.454 68.9359C273.083 68.9359 273.606 68.7919 274.022 68.5039C274.448 68.2053 274.747 67.8106 274.918 67.3199H276.486C276.251 68.1626 275.782 68.8506 275.078 69.3839C274.374 69.9066 273.499 70.1679 272.454 70.1679C271.622 70.1679 270.875 69.9813 270.214 69.6079C269.563 69.2346 269.051 68.7066 268.678 68.0239C268.304 67.3306 268.118 66.5306 268.118 65.6239C268.118 64.7173 268.299 63.9226 268.662 63.2399C269.024 62.5573 269.531 62.0346 270.182 61.6719C270.843 61.2986 271.6 61.1119 272.454 61.1119C273.286 61.1119 274.022 61.2933 274.662 61.6559C275.302 62.0186 275.792 62.5199 276.134 63.1599C276.486 63.7893 276.662 64.5039 276.662 65.3039ZM275.158 64.9999C275.158 64.4453 275.035 63.9706 274.79 63.5759C274.544 63.1706 274.208 62.8666 273.782 62.6639C273.366 62.4506 272.902 62.3439 272.39 62.3439C271.654 62.3439 271.024 62.5786 270.502 63.0479C269.99 63.5173 269.696 64.1679 269.622 64.9999H275.158ZM278.04 65.6079C278.04 64.7119 278.221 63.9279 278.584 63.2559C278.946 62.5733 279.442 62.0453 280.072 61.6719C280.712 61.2986 281.426 61.1119 282.216 61.1119C282.973 61.1119 283.634 61.2826 284.2 61.6239C284.776 61.9546 285.197 62.3653 285.464 62.8559V61.2559H286.936V74.1839H285.464V68.4079C285.186 68.8986 284.76 69.3146 284.184 69.6559C283.608 69.9973 282.936 70.1679 282.168 70.1679C281.4 70.1679 280.701 69.9759 280.072 69.5919C279.442 69.2079 278.946 68.6693 278.584 67.9759C278.221 67.2826 278.04 66.4933 278.04 65.6079ZM285.464 65.6239C285.464 64.9626 285.33 64.3866 285.064 63.8959C284.797 63.4053 284.434 63.0319 283.976 62.7759C283.528 62.5093 283.032 62.3759 282.488 62.3759C281.944 62.3759 281.448 62.5039 281 62.7599C280.552 63.0159 280.194 63.3893 279.928 63.8799C279.661 64.3706 279.528 64.9466 279.528 65.6079C279.528 66.2799 279.661 66.8666 279.928 67.3679C280.194 67.8586 280.552 68.2373 281 68.5039C281.448 68.7599 281.944 68.8879 282.488 68.8879C283.032 68.8879 283.528 68.7599 283.976 68.5039C284.434 68.2373 284.797 67.8586 285.064 67.3679C285.33 66.8666 285.464 66.2853 285.464 65.6239ZM297.172 61.2559V70.0239H295.716V68.7279C295.439 69.1759 295.049 69.5279 294.548 69.7839C294.057 70.0293 293.513 70.1519 292.916 70.1519C292.233 70.1519 291.62 70.0133 291.076 69.7359C290.532 69.4479 290.1 69.0213 289.78 68.4559C289.471 67.8906 289.316 67.2026 289.316 66.3919V61.2559H290.756V66.1999C290.756 67.0639 290.975 67.7306 291.412 68.1999C291.849 68.6586 292.447 68.8879 293.204 68.8879C293.983 68.8879 294.596 68.6479 295.044 68.1679C295.492 67.6879 295.716 66.9893 295.716 66.0719V61.2559H297.172ZM300.382 59.8319C300.105 59.8319 299.87 59.7359 299.678 59.5439C299.486 59.3519 299.39 59.1173 299.39 58.8399C299.39 58.5626 299.486 58.3279 299.678 58.1359C299.87 57.9439 300.105 57.8479 300.382 57.8479C300.649 57.8479 300.873 57.9439 301.054 58.1359C301.246 58.3279 301.342 58.5626 301.342 58.8399C301.342 59.1173 301.246 59.3519 301.054 59.5439C300.873 59.7359 300.649 59.8319 300.382 59.8319ZM301.086 61.2559V70.0239H299.63V61.2559H301.086ZM305.024 62.6799C305.28 62.1786 305.643 61.7893 306.112 61.5119C306.592 61.2346 307.173 61.0959 307.856 61.0959V62.5999H307.472C305.84 62.5999 305.024 63.4853 305.024 65.2559V70.0239H303.568V61.2559H305.024V62.6799ZM317.537 65.3039C317.537 65.5813 317.521 65.8746 317.489 66.1839H310.481C310.534 67.0479 310.827 67.7253 311.361 68.2159C311.905 68.6959 312.561 68.9359 313.329 68.9359C313.958 68.9359 314.481 68.7919 314.897 68.5039C315.323 68.2053 315.622 67.8106 315.793 67.3199H317.361C317.126 68.1626 316.657 68.8506 315.953 69.3839C315.249 69.9066 314.374 70.1679 313.329 70.1679C312.497 70.1679 311.75 69.9813 311.089 69.6079C310.438 69.2346 309.926 68.7066 309.553 68.0239C309.179 67.3306 308.993 66.5306 308.993 65.6239C308.993 64.7173 309.174 63.9226 309.537 63.2399C309.899 62.5573 310.406 62.0346 311.057 61.6719C311.718 61.2986 312.475 61.1119 313.329 61.1119C314.161 61.1119 314.897 61.2933 315.537 61.6559C316.177 62.0186 316.667 62.5199 317.009 63.1599C317.361 63.7893 317.537 64.5039 317.537 65.3039ZM316.033 64.9999C316.033 64.4453 315.91 63.9706 315.665 63.5759C315.419 63.1706 315.083 62.8666 314.657 62.6639C314.241 62.4506 313.777 62.3439 313.265 62.3439C312.529 62.3439 311.899 62.5786 311.377 63.0479C310.865 63.5173 310.571 64.1679 310.497 64.9999H316.033ZM330.003 61.0959C330.685 61.0959 331.293 61.2399 331.827 61.5279C332.36 61.8053 332.781 62.2266 333.091 62.7919C333.4 63.3573 333.555 64.0453 333.555 64.8559V70.0239H332.115V65.0639C332.115 64.1893 331.896 63.5226 331.459 63.0639C331.032 62.5946 330.451 62.3599 329.715 62.3599C328.957 62.3599 328.355 62.6053 327.907 63.0959C327.459 63.5759 327.235 64.2746 327.235 65.1919V70.0239H325.795V65.0639C325.795 64.1893 325.576 63.5226 325.139 63.0639C324.712 62.5946 324.131 62.3599 323.395 62.3599C322.637 62.3599 322.035 62.6053 321.587 63.0959C321.139 63.5759 320.915 64.2746 320.915 65.1919V70.0239H319.459V61.2559H320.915V62.5199C321.203 62.0613 321.587 61.7093 322.067 61.4639C322.557 61.2186 323.096 61.0959 323.683 61.0959C324.419 61.0959 325.069 61.2613 325.635 61.5919C326.2 61.9226 326.621 62.4079 326.899 63.0479C327.144 62.4293 327.549 61.9493 328.115 61.6079C328.68 61.2666 329.309 61.0959 330.003 61.0959ZM343.943 65.3039C343.943 65.5813 343.927 65.8746 343.895 66.1839H336.887C336.94 67.0479 337.234 67.7253 337.767 68.2159C338.311 68.6959 338.967 68.9359 339.735 68.9359C340.364 68.9359 340.887 68.7919 341.303 68.5039C341.73 68.2053 342.028 67.8106 342.199 67.3199H343.767C343.532 68.1626 343.063 68.8506 342.359 69.3839C341.655 69.9066 340.78 70.1679 339.735 70.1679C338.903 70.1679 338.156 69.9813 337.495 69.6079C336.844 69.2346 336.332 68.7066 335.959 68.0239C335.586 67.3306 335.399 66.5306 335.399 65.6239C335.399 64.7173 335.58 63.9226 335.943 63.2399C336.306 62.5573 336.812 62.0346 337.463 61.6719C338.124 61.2986 338.882 61.1119 339.735 61.1119C340.567 61.1119 341.303 61.2933 341.943 61.6559C342.583 62.0186 343.074 62.5199 343.415 63.1599C343.767 63.7893 343.943 64.5039 343.943 65.3039ZM342.439 64.9999C342.439 64.4453 342.316 63.9706 342.071 63.5759C341.826 63.1706 341.49 62.8666 341.063 62.6639C340.647 62.4506 340.183 62.3439 339.671 62.3439C338.935 62.3439 338.306 62.5786 337.783 63.0479C337.271 63.5173 336.978 64.1679 336.903 64.9999H342.439ZM350.137 61.0959C351.203 61.0959 352.067 61.4213 352.729 62.0719C353.39 62.7119 353.721 63.6399 353.721 64.8559V70.0239H352.281V65.0639C352.281 64.1893 352.062 63.5226 351.625 63.0639C351.187 62.5946 350.59 62.3599 349.833 62.3599C349.065 62.3599 348.451 62.5999 347.993 63.0799C347.545 63.5599 347.321 64.2586 347.321 65.1759V70.0239H345.865V61.2559H347.321V62.5039C347.609 62.0559 347.998 61.7093 348.489 61.4639C348.99 61.2186 349.539 61.0959 350.137 61.0959ZM357.875 62.4559V67.6239C357.875 68.0506 357.966 68.3546 358.147 68.5359C358.329 68.7066 358.643 68.7919 359.091 68.7919H360.163V70.0239H358.851C358.041 70.0239 357.433 69.8373 357.027 69.4639C356.622 69.0906 356.419 68.4773 356.419 67.6239V62.4559H355.283V61.2559H356.419V59.0479H357.875V61.2559H360.163V62.4559H357.875Z" fill="#585858"/>
</svg>
