<svg width="62" height="71" viewBox="0 0 62 71" fill="none" xmlns="http://www.w3.org/2000/svg">
<path d="M38.0833 13.7394H23.25M60.3333 18.8026V52.5578C60.3333 66.0598 56.625 69.4354 41.7917 69.4354H19.5417C4.70833 69.4354 1 66.0598 1 52.5578V18.8026C1 5.30056 4.70833 1.92505 19.5417 1.92505H41.7917C56.625 1.92505 60.3333 5.30056 60.3333 18.8026Z" stroke="#585858" stroke-width="2" stroke-linecap="round" stroke-linejoin="round"/>
<path d="M30.6669 59.6465C32.1913 59.6465 33.6533 59.0952 34.7313 58.114C35.8092 57.1328 36.4148 55.802 36.4148 54.4144C36.4148 53.0268 35.8092 51.696 34.7313 50.7148C33.6533 49.7336 32.1913 49.1824 30.6669 49.1824C29.1424 49.1824 27.6804 49.7336 26.6025 50.7148C25.5245 51.696 24.9189 53.0268 24.9189 54.4144C24.9189 55.802 25.5245 57.1328 26.6025 58.114C27.6804 59.0952 29.1424 59.6465 30.6669 59.6465Z" stroke="#585858" stroke-width="2" stroke-linecap="round" stroke-linejoin="round"/>
</svg>
