<svg width="54" height="53" viewBox="0 0 54 53" fill="none" xmlns="http://www.w3.org/2000/svg">
<ellipse cx="26.7527" cy="26.412" rx="26.4119" ry="26.412" fill="#216900"/>
<mask id="mask0_1_560" style="mask-type:alpha" maskUnits="userSpaceOnUse" x="8" y="8" width="38" height="38">
<rect x="8.74707" y="8.39844" width="37.2" height="37.2" fill="#D9D9D9"/>
</mask>
<g mask="url(#mask0_1_560)">
<path d="M18.3419 35.4978C19.6594 34.55 21.0574 33.8005 22.5358 33.2492C24.0142 32.6976 25.6149 32.4219 27.3377 32.4219C29.0605 32.4219 30.6612 32.6976 32.1396 33.2492C33.618 33.8005 35.016 34.55 36.3335 35.4978C37.357 34.4387 38.1802 33.1878 38.803 31.7453C39.4261 30.3025 39.7377 28.7197 39.7377 26.9969C39.7377 23.561 38.53 20.6354 36.1146 18.22C33.6992 15.8046 30.7735 14.5969 27.3377 14.5969C23.9019 14.5969 20.9762 15.8046 18.5608 18.22C16.1454 20.6354 14.9377 23.561 14.9377 26.9969C14.9377 28.7197 15.2492 30.3025 15.8723 31.7453C16.4952 33.1878 17.3184 34.4387 18.3419 35.4978ZM27.3385 27.7719C26.0323 27.7719 24.9307 27.3235 24.0335 26.4269C23.1363 25.5302 22.6877 24.4288 22.6877 23.1227C22.6877 21.8165 23.136 20.7149 24.0327 19.8177C24.9294 18.9205 26.0308 18.4719 27.3369 18.4719C28.6431 18.4719 29.7447 18.9202 30.6419 19.8169C31.5391 20.7136 31.9877 21.815 31.9877 23.1211C31.9877 24.4272 31.5394 25.5289 30.6427 26.4261C29.746 27.3233 28.6446 27.7719 27.3385 27.7719ZM27.3377 40.9469C25.3922 40.9469 23.5709 40.5847 21.8739 39.8603C20.177 39.136 18.7004 38.1459 17.4444 36.8901C16.1887 35.6341 15.1986 34.1576 14.4742 32.4606C13.7499 30.7636 13.3877 28.9424 13.3877 26.9969C13.3877 25.0514 13.7499 23.2301 14.4742 21.5331C15.1986 19.8361 16.1887 18.3596 17.4444 17.1036C18.7004 15.8479 20.177 14.8578 21.8739 14.1334C23.5709 13.4091 25.3922 13.0469 27.3377 13.0469C29.2832 13.0469 31.1045 13.4091 32.8014 14.1334C34.4984 14.8578 35.9749 15.8479 37.231 17.1036C38.4867 18.3596 39.4768 19.8361 40.2011 21.5331C40.9255 23.2301 41.2877 25.0514 41.2877 26.9969C41.2877 28.9424 40.9255 30.7636 40.2011 32.4606C39.4768 34.1576 38.4867 35.6341 37.231 36.8901C35.9749 38.1459 34.4984 39.136 32.8014 39.8603C31.1045 40.5847 29.2832 40.9469 27.3377 40.9469ZM27.3377 39.3969C28.7665 39.3969 30.1725 39.1469 31.5556 38.6471C32.9385 38.1474 34.1337 37.4634 35.1412 36.5949C34.1337 35.786 32.9682 35.1466 31.6448 34.6767C30.3213 34.2068 28.8856 33.9719 27.3377 33.9719C25.7898 33.9719 24.349 34.2019 23.0155 34.662C21.6823 35.1221 20.5218 35.7664 19.5342 36.5949C20.5417 37.4634 21.7369 38.1474 23.1198 38.6471C24.5029 39.1469 25.9089 39.3969 27.3377 39.3969ZM27.3377 26.2219C28.208 26.2219 28.9423 25.9229 29.5406 25.3248C30.1387 24.7265 30.4377 23.9922 30.4377 23.1219C30.4377 22.2515 30.1387 21.5172 29.5406 20.9189C28.9423 20.3209 28.208 20.0219 27.3377 20.0219C26.4674 20.0219 25.7331 20.3209 25.1348 20.9189C24.5367 21.5172 24.2377 22.2515 24.2377 23.1219C24.2377 23.9922 24.5367 24.7265 25.1348 25.3248C25.7331 25.9229 26.4674 26.2219 27.3377 26.2219Z" fill="white"/>
</g>
</svg>
